<?xml version="1.0" encoding="utf-8"?>
<!-- Generator: Adobe Illustrator 27.1.1, SVG Export Plug-In . SVG Version: 6.00 Build 0)  -->
<svg version="1.1" id="Layer_1" xmlns="http://www.w3.org/2000/svg" xmlns:xlink="http://www.w3.org/1999/xlink" x="0px" y="0px"
	 viewBox="0 0 4096 2048" style="enable-background:new 0 0 4096 2048;" xml:space="preserve">
<style type="text/css">
	.st0{fill:none;stroke:#FFFFFF;stroke-width:3;stroke-linejoin:round;stroke-miterlimit:10;}
</style>
<path id="US-AL_00000038377634154488479740000018271306030165288097_" class="st0" d="M2245.4,1366.8l1.2,7l1.2,7l1.2,7l1.2,7l1.2,7
	l1.2,7l1.2,7l1.2,7l1.2,6.9l1.2,6.9l1.2,6.9l1.2,6.9l1.2,6.9l1.2,6.9l1.2,6.9l1.2,6.9l1.1,3.1l0.9,5.1l6.4,14.9l1.9,6.3l-0.5,2.6
	l0.8,2.2l2.1,1.8l-0.4,2.1l-2.9,2.4l-1.9,2.9l-1.4,5.2l0,0l-2.7,9.1l0,5.5l2.6,7.5l0,0l0.5,3.3l-1.7,14.7l1.2,9.4l2.8,6.1l-14.7,0
	h-14.7h-14.7h-14.7h-14.7h-14.7h-14.7h-14.7l-0.6,3.8l0.3,3.6l1.6,3.4l6.6,6.5l0.6,1.6l-1.2,5l0.2,3.6l-0.7,1.8l-1.6,1.6l-0.4,1.8
	l-1.1,0.5l-5,5.4l-17.4,1.8l1-1.2l3.7-0.2l5.2-1.7l-1.1-2.9l-2-3.2l-1.8-0.3l-1.2-1.9l0-5.9l-1.2-3.4l-2.8-3.5l-1,0.7l-2.1,6
	l-1.7,7.9l-0.9,2.6l-5.2,0.2l-4.6-0.5l-2.3,0.1l-0.6-10.8l-0.5-9.8l-0.5-9.9l-0.5-9.9l-0.5-9.9l-0.5-9.9l-0.5-10l-0.5-10l1.1-9.8
	l1.1-9.8l1.1-9.9l1.1-9.9l1.1-9.9l1.1-9.9l1.1-10l1.1-10l1.1-10l1.1-10l1.1-10l1.1-10.1l1.1-10.1l1.1-10.1l1.1-10.1l1.1-10.2
	l0.3-2.6l0-0.9l0.1-1.3l-4-3.6l-0.8-0.7l-0.6-0.7l0.6,0l7.3,0.1l7.3,0.1l7.3,0.1l7.3,0.1l7.3,0.1l7.3,0.1l7.3,0.1l7.3,0.1l7.3,0.1
	l7.3,0.1l7.3,0.1l7.3,0.1l7.3,0.1l7.3,0.1l7.3,0.1L2245.4,1366.8L2245.4,1366.8z M2134.2,1621.8l-4,1.1l-5.9-0.1l-1.2-0.4l2.4-0.8
	l7-1L2134.2,1621.8L2134.2,1621.8z"/>
<path id="US-AR_00000029746405089805950270000014778040321130080688_" class="st0" d="M2060,1311.2l-0.2,1l0.9,2.2v1.3l-0.7,0.8
	l-1.5,0.5l-1.2,0.5l-0.2,1l0,0.4l0.1,1.1l0.2,0.9l-0.7,1.3l-5.3,3.1l-2.2,4l0.8,4.9l-1.8,4.9l-4.5,5l-1.9,5.5l0.7,6.1l-2.3,5
	l-5.2,3.8l-1.7,2.3v0.1v1.7l0.5,1.4l-1.7,2.6l-4.3,2.6l-2.4,2.6l-0.3,2.5l-1,1.2l-1.9,0.5l-1.1,3.7l-1,8.7l-2.3,4.9l-3.8,1.2l-2,1.9
	l-0.3,2.7l-2.2,3l-4.2,3.5l-1.4,3.3l1.4,3.1l-0.3,1.3l-1.3,1l-4.5,1.5l-0.8,0.7l-0.4,0.8l0.9,1.6l0.5,2.4l-0.7,4l-1.1,1.7l-1.1,1.6
	l-3.8,2.8l-1.1,2.2l1.7,1.5l-0.1,1.7l-1.9,1.8l0.5,2l0.4,1.4l1.8,1.2l0.6,3.3l-1.3,4.3l0.2,3.5l2.1,2.9l0.4,1.3l-2.1,9.6l0.1,1.4
	h-8.9l-8.2,0h-8.2h-8.2h-8.2l-8.2,0h-8.2h-8.2h-8.2l-8.2,0h-8.2h-8.2h-8.2l-8.2,0h-8.2h-8.2l0-7.3l-0.1-7.3l0-7.3l-0.1-7.3l-2.3-1.3
	l-4.2-0.6l-2.2,0.4l-2.6-0.3l-1.7,1.2l-1.2,0.2l-0.9-0.3l-0.5-1.1l-1.9-0.8l-2.4-2.7l0.1-5.9l0.1-5.9l0.1-5.9l0.1-5.9l0.1-5.9
	l0.1-5.9l0.1-6l0.1-5.9l0.1-6l0.1-6l0.1-6l0.1-6l0.1-6l0.1-6l0.1-6l0.1-6l-1-7.8l-1-7.7l-1-7.8l-1-7.8l-1-7.8l-1-7.8l-1-7.8l-1-7.9
	h12.6h12.6h12.6h12.6h12.7h12.6h12.6h12.6h12.6h12.6h12.7h12.6h12.6h12.6h12.6h12.7l2,4.4l2,2.8l0.3,2.1l-0.4,2.1l-3.3,4.5l-3,2.1
	l-1.7,2.3l-2.3,2.1l-3.6,6l7.5-0.1l7.5-0.1l7.5-0.1L2060,1311.2z"/>
<path id="US-AZ_00000137128844224853127810000000027520241091845262_" class="st0" d="M1181.6,1255v20.1l0,19.9v19.8v19.7v19.7v19.6
	v19.5v19.4v19.3v19.3v19.2v19.1v19v19v18.9v18.8h-10.3l-16.1,0l-16.1,0l-16,0H1107l-16.1,0l-21.5-7.8l-21.6-7.9l-21.5-7.9l-21.5-7.9
	l-21.6-7.9l-21.5-7.9l-21.6-7.9l-21.5-7.9l2.2-3l2.8-8.1l0.2-0.5l0,0l6.3-0.6l3-2l1.7-3.7l0.4-3.8l-1-3.8l-2.8-2.9l-4.4-1.9
	l-2.6-5.3l-0.7-8.7l0.8-4.7l2.3-0.7l2.2-2.1l2.1-3.6l1.6-3.9l1-4.2l0.2-5.4l-0.6-6.5l4.1-8l4.1-5l7.5-6.1l1.7-1.8v-1.5v-0.1
	l-1.5-2.1l-6.8-4.2l-2.9-3l-0.2-2.8l-0.1,0l-0.9-2.7l-7.2-11.3l-2.4-6.2v-4.6v-0.4l0.9-19.6l-2.6-6.8l-0.6-3.9l0.8-4.7l-0.2-3
	l-1.3-2.6l-0.3-4.7l-0.1-5.8l-2.1-3.7l-0.4-1.6l1.2-4l2.1-2.1l3.5-1.4l4-0.5l4.5,0.4l3.4,1.8l2.3,3.1l2.2,1.6l2.2,0l2.9-2.6l2.6-5.5
	l0.9-0.3l0.1-24.2l0-22.1H969h14.1h14.2l14.2,0h14.2h14.2h14.1l14.2,0h14.2h14.2h14.2h14.1l14.2,0h14.2h14.2L1181.6,1255z"/>
<path id="US-CA_00000142174539611470284010000015941705494084034482_" class="st0" d="M684.1,961.7v11.4v11.4v11.3v11.3v11.3v11.2
	v11.2v11.2v11.1v11.1v11.1v11v11v11v11v11l10.7,9.5l10.7,9.5l10.6,9.5l10.7,9.5l10.6,9.4l10.7,9.4l10.7,9.4l10.6,9.4l8.3,7.9
	l8.3,7.9l8.3,7.9l8.3,7.8l8.3,7.8l8.3,7.8l8.3,7.8l8.3,7.8l11.5,11.1l11.5,11.1l11.5,11.1l11.5,11l11.5,11l11.5,11l11.5,11
	l12.4,11.7v4.6l2.4,6.2l7.2,11.2l0.9,2.7l0.1,0l0.3,2.8l2.8,3l6.8,4.2l1.5,2.1v0.2l0,1.5l-1.7,1.8l-7.5,6.1l-4.1,5l-4.1,8l0.6,6.5
	l-0.2,5.4l-1,4.2l-1.5,3.9l-2.1,3.6l-2.2,2.1l-2.3,0.7l-0.8,4.7l0.7,8.7l2.6,5.3l4.4,1.9l2.7,2.8l1,3.9l-0.4,3.8l-1.8,3.7l-3,2
	l-6.3,0.5l0,0l-0.2,0.5l-5.2,0.6l-13,1.2l-13,1.2l-13,1.2l-13,1.2l-13,1.2l-13,1.2l-13,1.2l-13,1.2l-0.1-0.3l-0.3-5.9l-2.1-2.1
	l-2.7,1.3l-1.3-7.6l0.7-3.6l-0.3-3.5l-2.6-8.7l-6.8-10.6l-14.6-13.2l-7.4-4.4l-5.8-5.6l-3.7-1.5l-4.6-0.4l-1.4,2.5l-5.3-1.7l0.8-6.2
	l-5.2-8.7l-4.2-1l-10.6,0.6l-14.1-4.8l-4.2-2.8l-1.4-5.1l-6.7-4.4l-8.7-4.3l-4.9,1l-6.4-0.7l-9.1-3.1l-5.3-0.4l-10.3,0.9l-3.9-0.7
	l-3.6-4l-3.9-2l0.8-4.9l-0.5-4.4l0.6-3.4l-1.7-7.6l1.4-7l-1.2-2.6l-2.2-1.9l-6.9-2.9l-1.3-3.6l1.1-5l-1.8-3.3l-5.6-3.1l-5.2-7
	l-6.6-3.9l-2.7-6.5l-4.1-4l-1.4-3.6l-9.1-12.7l-9.7-9.9l-1.5-5.7l-0.4-7.9l3.8-4.8l2-4.2l-0.2-3.9l-0.6-2.8l-3.3-5l-12.9-2.9
	l-10.5-12.3l-0.6-9.4l-4.1-9.6l0-6.3l-0.6-6.8l3.1-1.5l2.8,0.5l-0.3,2.7l0.9,4.9l3.3,3.7l3.1,1.6l2.8,3.6l2.1,1.1l2.2,0.2l-1.2-2.3
	l-1.3-1.4l-1.5-4.7l-2.9-6l-3.3-3.3l-1.7-6.1l-1.4-1.4l-0.9-2.3l3.2-2.7l4.4-1.9l5.9-0.5l16.8,0.9l3.6-1.5l2.9,0.5l2.2-0.2l-4.5-1.6
	l-2.6,0.5l-3-0.3l-6,0.3l-2.4-0.7l-2.7-1.9l-1.7-0.2l-5.5,3.3l-2.5-0.4l-5.8-3.6l-2.6-0.5l-4.1,2.1l-0.5,8.9l1.3,6.6l-2.5,0.7
	l-2.8-2.8l-4.4-1.6l-3.6-2.5l-5.1-4.6l-2.7-1.7l-3,3.9l-0.1-1.8l1.5-4.4l-0.4-7.5l4.6,6l-1.4-4.2l-3.6-4.6l-2.7-1.6l-3.4-8.3l-7.7-5
	l-6.1-8.1l-12.5-13.5l-0.8-11.9l-4.6-15.1l1.9-8.6l-0.2-6.1l-2.3-9.2l-2.4-5l-10.2-13.8l-9.8-9.3l-1.5-7l-0.7-7.1l2.1-6.4l1.8-6.7
	l1.4-1.8l0.5,0.7l-0.4,1.4l1.4,0.4l0.5-2.9l0.8-1.5l-1.4-0.2l0.1-0.9l0.9-1.9l3-8.8l-0.3-11.1l3.2-13.8l-0.1-4.5l-2.1-9.8l-2.1-5.9
	l-3.7-4.2l1.6-6.1l-0.1-5.8l-0.8-1h12.4h12h12h12h12h12h12h12h12h12h12h12h12h12h12L684.1,961.7L684.1,961.7z M689.4,1417.4l9.3,2.8
	l5-1.4l0.9,1.4l-0.6,1.2l-11.2,2.1l-3.4-1.5l-0.3-2l-1.2-1.9L689.4,1417.4z M670.2,1420.4l-2.4,0.1l-3.7-0.6l1.3-1.3l2.1-0.9
	l0.7,0.7L670.2,1420.4L670.2,1420.4z M682.1,1426.1l-3.2,0.8l-2.4-0.7l-3.9-5.2l8.2-0.7l3.5,2.3l0.5,0.6L682.1,1426.1L682.1,1426.1z
	 M759.1,1455.1l2.3,4l-3.3-0.5l-3.5,0.2l-1.1-2.2l-1-3l-0.7-0.8l-2.4-0.3l-0.2-0.3l-0.3-1.4l0.7-0.7l7.4,3.4L759.1,1455.1
	L759.1,1455.1z M709.6,1464.2l-2,0.1l-2.8-0.5l-1.4-2.9l2.3-0.2l2.1,0.4l1.7,2.3L709.6,1464.2L709.6,1464.2z M759,1485.2l-2.7,0.5
	l-2.9-1.1l-2.5-5.2l-2.8-4.1l1.5-1.2l2.3,3.9l5.6,5.9L759,1485.2L759,1485.2z"/>
<path id="US-CO_00000058550079946076429350000010352588827767811495_" class="st0" d="M1500.5,1081.5l0,11.1v11l0,11l0,11v10.9
	l0,10.9l0,10.9v10.9l0,10.8l0,10.8l0,10.8v10.8l0,10.7l0,10.7v10.7l0,10.6h-11.2h-11.2h-11.2h-11.2H1439h-17.2h-17.1h-17.2h-17.2
	h-17.1H1336h-17.2h-17.1h-17.2h-17.2h-17.2h-17.1h-17.2h-17.2h-17.1v-14.1v-14.2v-14.3V1198v-14.4v-14.4v-14.5v-14.5v-14.6V1111
	v-14.7v-14.7v-14.8v-14.9V1037v-15h14.2h14.3h14.3h14.2h14.3h14.3h14.2h14.3h14.3h14.2h14.3h14.2h14.3h14.3h14.2h14.3h11.3h11.3
	h11.3h11.3h11.3h11.3h11.3h11.3l0,7.5v7.5v7.4v7.4v7.4v7.4v7.4L1500.5,1081.5z"/>
<path id="US-CT_00000075150022287464621910000000951040920660266929_" class="st0" d="M2873.2,961l0,3.3v4.6l0,3.3l0,4.5v5.2l0,4.8
	l0,4.1l-0.1,2.5l-0.2,3.8l-1.2,1.4l-0.6,3.5l-4-0.3l-6.6,0.9l-8.7,2.1l-4.8-1.2l-4.9,2.2l-16.7,0.6l-3.5-1.2l-4.5,4.1l-7.2,2.5
	l-18.2,9.2l-2.1,1.8l-2.4-3.8l-1.8-3l3.7-2.4l2.8-1.8l2.7-1.6l1.7-1.1l-1.4-2.3l-1.4-2.3l0.3-5.7l0.4-5.7l0.3-5.7l0.4-5.7l0.3-5.8
	l0.4-5.7l0.3-5.8l0.4-5.8l3.8,0.2l3.8,0.1l3.8,0.1l3.9,0.2l3.8,0.1l3.8,0.2l3.8,0.1l3.8,0.1l0,1.6l2-0.2l0.2-1.4l5.5,0.1l5.4,0.1
	l5.5,0.1l5.4,0.1l5.5,0l5.4,0.1l5.5,0.1l5.4,0.1L2873.2,961z"/>
<path id="US-DC_00000005965786770632346520000008638008766364812436_" class="st0" d="M2635.7,1146.7l-1-1.5l-2.2-1.2l-0.9-0.4
	l3.6-4l2.4,3.4l2.7,3.8l-4.1,4.7L2635.7,1146.7z"/>
<path id="US-DE_00000075844658527356814720000004738268487913664914_" class="st0" d="M2708.8,1092.5l-2,2.1l-1.7,3.7l-3.9,4.5
	l0.3,3l0.7,2.1l-0.3,4.5l2.5,4.3l4.9,7.1l0.9,11l3.7,7.3l5.7,8.6l4.4,2.4l0.2,3.2l-2,5.2l-2.7,2.4l3.5-0.5l1.7,1.2l1.7,4.3l-0.1,2.8
	l-4.9,0h-10h-10.1h-4.6h-0.1h-0.1h-0.1h-0.1h-0.1h-0.1h-0.1h-0.1l-0.4-9.2l-0.4-9.2l-0.4-9.2l-0.5-9.2l-0.4-9.3l-0.4-9.3l-0.4-9.3
	l-0.4-9.3l3.4-4.7l1.4-1.4l1.9-0.7l5.6-0.2L2708.8,1092.5z"/>
<path id="US-FL_00000104671820167908765200000002643852345398527163_" class="st0" d="M2432.5,1596.7l2.1,4.8l3.2,19.4l2.2,6.8
	l4,18.1l6.6,17.5l9.3,21.1l15.2,25.4l1.8,3.6l-2,3l-0.6,3.2l-0.2,4.8l0.5,4.6l1.8,5.7l3.5,8.7l-1.9-1.7l-5-12.4l-0.6-7.3l0.7-10.4
	l-1.2,0.2l-1,3.4l-0.5,4l-1.3,1.5l-1.7-6.1l0.1-2.8l1.8-3.2l-0.5-1.2l-3-1.6l-0.6-2.6l0.4-2.6l-1.7-1.4l-1.4,0l0.9,6.3l1.4,3.9
	l1.7,9.2l2.8,5.6l1.6,4.7l19.3,49.7l4.5,6.3l1.7,4.5l1.7,9.5l0.4,12.1l-3.1,22l-0.7,15l-0.4-0.4l-0.3-1.6l-0.7-0.2l-2.8,6.9
	l-3.7,6.2l-1.2,9.6l-1.8,4.8l-5.4,5.1l-3.3-0.1l-8.1,3.8l-5.7-1l-6.8,2.1l-4.5-0.2l-2.6-4.5l0.4-2l1-2l1.7-0.5l6,4.7l1.1-2l-1.8-2.4
	l-3.5-1.3l-2.6-1.4l-5.2-10.8l-5.4-7.4l-0.9-5l-9.2-3l-6.7-4.6l-4.3-8.2l-2.5-14.6l-2.9-1.6l-1.3-1.2l2.9-5.4l3-4.5l-2.4,1.1
	l-1.8,1.7l-2.3,4l-1.6,0.6l-1.5-0.6l-1.7-7.7l0.5-9.5l2.5-3.6l-3.8-0.1l-3.9,1.4l0.6,3.2l-0.5,1.7l-2.8-0.4l-2.1-1.1l-2.9-3.3
	l-4-6.3l-8.2-17.3l-1.6-2.5l-2.7-2.6l1.3-0.8l2.3-0.5l5.2-7.8l4.1-4.7l1.4-3.3l-0.2-1.4l-1.8-2l-2.4,1.8l-1-0.5l-2.7-4.1l-2.6-1.2
	l-1.8,0.9l1.9,3.4l1.7,1.3l-0.7,4.9l-0.7,1.6l-1.6,1.4l-2.5-0.8l-1.3,1.2l-1.5-1.3l-1.4-2.2l-1.6-3.6l4.3-20l4-12.8l0.4-14.6
	l0.3-2.2l-0.3-3.9l-5.4-8.5l-23.7-20.7l-18.3-24.7l-15.9-9.3l-12.1,2l-2.1,1.9l-0.9,2.5l0.8,2.8l-1.1,1.2l-3.2-0.1l-4.3,0.6
	l-11.4,6.5l-4-0.2l-3.7,1.7l-2.8,1.3l-7.1,0.7l-6,1.4l-2.6-0.8l-1.7-3.8v-3.9l1.4,3l2.1,2.3l1-0.9l0.4-2.1l-2.1-4.1l-6.9-5.2
	l-7.8-7.6l2.4,0.2l0.6-1.6l-2.4-2.1l1-2.5l1.7-2.6l-3.3,0.4l-2.9,1.8l-0.1,2.3l-0.6,1.8l-1.6-0.2l-2.9-2.2l-14.5-6.2l-12.7-3.5
	l9.7-1.6l5.3,1.2l-0.6-1.9l-1.3-1.2l-4.1-1.5l-5.3,0.6l-3.3-0.7l-3.4,1.5l-3.8,2.2l-3.3,1.2l-13.1,1.6l-10.6,1.7l1.7-1.8l1.8-1.2
	l6.3-1.8l0.9-3.7l-1.5-3.6l-1.6,0.9l-1.7,2.8l-2.1-2h-2.4l-0.6,4.5l-3,3l-1.4,3l-8.8,2.4l-1.2-0.8l2.6-2.8l-0.2-1.6l-1.9,0.9
	l0.4-1.8l1.6-1.6l0.7-1.8l-0.2-3.6l1.2-5l-0.6-1.6l-6.6-6.5l-1.6-3.4l-0.3-3.6l0.6-3.8h14.7h14.7h14.7h14.7h14.7h14.7h14.7l14.7,0
	l1.9,4.1l3.6,8.6l0.1,2l4.2,0.3l7.2,0.5l7.2,0.5l7.2,0.5l7.2,0.5l7.2,0.5l7.2,0.5l7.2,0.5l7.2,0.5l7.2,0.5l7.2,0.5l7.2,0.5l7.2,0.5
	l7.2,0.5l7.2,0.5l7.2,0.5l7.2,0.5l0,1.7l1.2,2.7l0.3,3.1l0.5,1.5l1.4,0.9l2.3,0.2l2.3-1.7l1.4-3.8l0.4-4.3l-0.9-4.9l0.1-4.1l1.2-2.4
	l1.4-0.6l1.2-1.3l1-0.3l2.5,0.7l9.4,3.5L2432.5,1596.7L2432.5,1596.7z M2277.9,1653.6l-4.6,1.9l-4.9-1.4l3-0.2l2.2,0.5l5.6-2.7
	l2.9-2l3.4-0.8L2277.9,1653.6z M2492.3,1775.1l0.7,3.8l-4.2-8.7l-5.2-13.7l-2.8-10.6l1.9,2.8l1.8,5.9L2492.3,1775.1L2492.3,1775.1z
	 M2406.2,1811.9l0,2.9l-2.3-5l-1.5-5.5l2.2,1.8L2406.2,1811.9L2406.2,1811.9z M2408.3,1816.9l-1.6,1.3l-3.3-1l-1.8-1.7l-0.8-3.4
	l2.8,3.6l1,0.8L2408.3,1816.9L2408.3,1816.9z M2483.5,1882.7l-9,9.4l1-2.4l3.5-5l1.2-2.4l2.4-1.5l2.2-2.7l0.1-3.2l3.2-2.2l1.1-0.3
	L2483.5,1882.7L2483.5,1882.7z M2471.8,1894.6l-1.2,0.2l1.8-2.1l0.5,0.1L2471.8,1894.6z M2463.1,1899.6h-0.9l0.4-0.7l1.8-1.4
	l0.6,0.5l-0.1,0.7L2463.1,1899.6z M2453.4,1903.9l-2.1,1.2l-2.2-0.9l2.4-1.2l7-1.3l-2.7,1.6L2453.4,1903.9z M2440.2,1907.1l-1.4,1
	l-0.6-0.3v-1.5l-1.9-3.3l0-0.9l4.4,3.2l0.1,0.9L2440.2,1907.1L2440.2,1907.1z M2429.7,1909.7l-2.9,0.5l2.4-2l0.8-3l1.4,2.3l0,1.4
	L2429.7,1909.7L2429.7,1909.7z M2419.8,1912.4l-1.2,0.1l-0.1-0.8l2-0.9l1.3,0l0,1L2419.8,1912.4L2419.8,1912.4z"/>
<path id="US-GA_00000132769589990015089990000017715034129065765520_" class="st0" d="M2461.2,1528l-2.3,4.5l-5.5,2.8l-1.7-0.1
	l-1.4,0.8l0.8,2l1.4,1.4l0,1.4l-1.4,1.8l-2.9,0.5l-1.6,2.1l0.5,2l1,1.1l-0.2,1.9l-3.3,1.9l-0.8,1.9l1.6,0.5l1.3-0.5l0.9,0.4l-2,3.1
	l-1.8,1.9l-1.7,3.4l-3.9,1l0.1,1.1l2.2,1l1.8,2.7l-3.5,4.9l-2.2-0.4l-1.3-1.1l-0.8,3.9l0.3,2l-0.8,4.2l-1.4,5l-0.9,2.1l0.2,3.8
	l0.6,3.7l-7.7-0.5l-9.4-3.5l-2.5-0.7l-1,0.3l-1.2,1.3l-1.4,0.6l-1.2,2.4l-0.1,4.1l0.9,4.9l-0.4,4.3l-1.4,3.8l-2.3,1.7l-2.3-0.2
	l-1.4-0.9l-0.5-1.5l-0.3-3.1l-1.2-2.7l0-1.7l-7.2-0.5l-7.2-0.5l-7.2-0.5l-7.2-0.5l-7.2-0.5l-7.2-0.5l-7.2-0.5l-7.2-0.5l-7.2-0.5
	l-7.2-0.5l-7.2-0.5l-7.2-0.5l-7.2-0.5l-7.2-0.5l-7.2-0.5l-7.2-0.5l-4.2-0.3l-0.1-2l-3.6-8.6l-1.9-4.1l-2.8-6.1l-1.2-9.4l1.7-14.7
	l-0.5-3.3l0,0l-2.6-7.5l0-5.5l2.7-9.1l0,0l1.4-5.2l1.9-2.9l2.9-2.4l0.4-2.1l-2.1-1.8l-0.8-2.2l0.5-2.6l-1.9-6.3l-6.4-14.9l-0.9-5.1
	l-1.1-3.1l-1.2-6.9l-1.2-6.9l-1.2-6.9l-1.2-6.9l-1.2-6.9l-1.2-6.9l-1.2-6.9l-1.2-6.9l-1.2-7l-1.2-7l-1.2-7l-1.2-7l-1.2-7l-1.2-7
	l-1.2-7l-1.2-7l14.8,0.2l14.8,0.2l14.8,0.2l14.8,0.2l13.8-0.2l13.8-0.2l13.8-0.2l13.8-0.2l-0.3,0l-2.2,3.7l-6.7,7l-1.8,5.4l8.6,6
	l0,0l5.1,4.8l3.5,1.9l3.6,0.6l2.2,1.6l1.3,3.9l0,0l10.4,19.1l0,0l10.8,9.8l4.3,4.8l2.2,4.6l9.2,7.6l3.1,4.1l0.1,3.1l1.1,2.2l2,1.3
	l1.9,2.8l1.9,4.2l3.7,3.7l5.5,3.1l4,7.2l2.6,11.1l2.6,6.5l4,2.7l5.4,9.5l1.7,5.6l-0.1,5l2.8,3.9L2461.2,1528L2461.2,1528z
	 M2436.4,1584l-2,12.8l-0.9-4.5l-0.1-4.4l1.5-2.6L2436.4,1584z"/>
<path id="US-IA_00000142175649634450703160000009169894853335511939_" class="st0" d="M2017.1,930.3l2.8,4.2l4.8,3.8l2.7,3.5
	l0.7,3.3l2.9,3.5l5.2,3.7l3,3.3l0.8,2.8l-0.1,4.4l-1.1,5.9l-1.9,4.3l-2.7,2.6l-1.9,3.7l-1.3,4.7l-4.1,4.3l-6.8,4l-7.6,2.7l-8.3,1.4
	l-5,3.4l-1.5,5.4l0.7,4.4l3,3.6l1.7,3.8l0.4,4l-2.1,6.7l-4.6,9.3l-5.2,6l-5.6,2.7l-2.5,4l0.6,5.3l-0.5,3l-2.3,1.1l-4-3.1l-0.7-2.2
	l-3.2-2.2l-0.5-1.4l-2.5-1.3l-2.3-4.3l-11.4,0.1l-11.5,0l-11.4,0.1l-11.5,0.1l-11.4,0.1l-11.5,0l-11.4,0.1l-11.4,0.1l-11.5,0.1
	l-11.4,0.1l-11.5,0l-11.4,0.1l-11.5,0.1l-11.4,0.1l-11.5,0.1l-11.3,0l-2.8-4.4l-1.5-4.1l0.9-2l0.2-6.7l-0.5-11.4l-1.1-6.5l-1.6-1.4
	l-0.2-2l1.3-2.5l-0.4-1.7l-2-0.9l-0.6-2.2l0.8-3.5l-0.5-2.1l-1.7-0.8l-0.7-1.2l0.3-1.6l-1-1l-2.1-0.5l-0.9-4l0.4-7.5l-0.8-5.3
	l-2-3.1l-1.1-2.9v-2.8l-2.1-4.3l-4.3-5.9l-2.8-7.8l-1.3-9.6l-3-5.4l-1.4-0.3l-1.2-5.1l-1.2-2.3l-0.2-1.7l-3.8-4.4l-0.2-1.7l0.5-2.1
	l2.5-4.1l2.2-6.8l0.5-4.6l1.8-3.5l0-1.9l-0.3-2.5l-1-2.2l-3-1.6l-0.3-0.7l-0.3-2.5l1.2-1.6l0.4-1.8l-0.3-2.2l-1.8-3.8l-0.8-3.9
	l6.6-0.2h14.8h14.8h14.8h14.8l14.8,0h14.8h14.8h14.8h14.8h14.8h14.8h14.8h14.8h14.8h14.8l15,0l0.3,3.9l0.9,2.8l1.8,2.3l2.8,1.7
	l0.4,3.3l-1.8,4.9l-0.6,6l0.6,7.2l1.4,6.5l2.2,5.7l5,4.2l7.8,2.7l4.6,4.1l1.4,5.5L2017.1,930.3z"/>
<path id="US-ID_00000165934504288285740920000002611945549060484540_" class="st0" d="M1090.5,806.4v9.9l0,9.8v9.8v9.8v9.8v9.7v9.7
	v9.7v9.7v9.6v9.6v9.6v9.6v9.6v9.6v9.5h-8.5h-8.5h-8.5h-8.5h-8.5h-8.5h-8.5h-8.5h-8.5h-8.5h-8.5h-8.5h-8.5h-8.5h-8.5h-8.5h-16.9
	h-16.9H904h-16.9h-16.9l-16.9,0h-16.9h-16.9v-13.6l0-13.7v-13.7l0-13.8v-13.8v-13.9l0-13.9V850l0-0.3l2.9-9.5l0.6-4.6l-0.7-2.6
	l0.5-2.5l1.7-2.4l0-2.7l-1.8-2.8l-3.5-1.9l-5-0.9l-2.6-3.4l-0.2-5.8l3.8-9l7.7-12.2l4.2-8.6l0.8-5.1l4.6-11.8l8.5-18.5l3.3-11.9
	l-2-5.2l-4.4-5l-6.7-4.8l-4.7-5.6l-1.3-2.8l-1.5-3.5l-0.8-4.4l1.2-2.6l-1-4.5l-3-6.4l-1.3-4.3l0.3-1.5l0.3-0.6l0-10.5v-10.6l0-10.6
	l0-10.6l0-10.7l0-10.7v-10.8l0-10.8l0-10.8l0-10.8V564l0-10.9l0-11l0-11v-11l-0.1-11h14.6h19.3h11v17v16.9V560v16.8l4.9,6.8l3.6,4.1
	l2.3,4.5l3.5,4.7l0.7,1.7l1.3,5l-0.9,3.6l1.9,3.7l-0.3,1.8l-1.4,1l-0.3,0.3l0,0.4l0.5,0.6l5,3.5l4.9,4.9l6.2,3.4l2,2l8.2,9.7
	l4.2,6.2l4.4,4.5l2.2,5.2l4.6,4.5l1.2,2.3l0.3,0.5l0.6,0l2.8-1.1l0.7,0.3l1.4,1.8l0.3,2.7l1,1.2l1.8,0.6l2,0.2l6.2-1.3h1.4l0.7,0.5
	l0.3,1.4l-0.1,2.4l-0.6,3.4l-1.9,3.3l0.3,3.1l-1.5,7.1l-1.4,4.8l-0.1,4.6l-1.7,2.7l1,3.2l-0.7,4.8l0.6,1.3l2.2,2.2l0.9,5.9l-0.4,1.1
	l-4,2.3l-1.4,1.5l-0.5,2.2l1.7,6.2l-1.7,3.4l-0.2,2.9l0.4,0.8l3.7,1.6l4.4,3.5l1.4,0.8l1-0.1l1.9-1.2l2.1-2.4l4.2-2.4l5-5.1l0.2-1.4
	l0.4-0.8h0.7l1.6,0.7l3.1,3.1l2.8,1.7l0.5,0.4l0.2,0.9l-0.1,3.1l1.5,2.4l0.4,4l1.6,4l1.1,4.8l4.1,6.2l2.2,4.4l2.5,2l1.5,2.3l1.1,2.8
	l0.4,2.3l-1.4,4.1l0.4,1.7l1.3,1.8l4.2,4.2l0.8,0.3l4-0.4l2.1,0.7l2.1,2.1l2.1,3.2l1.4,3.2l0.4,3.8l2.2,4.2l0.3,3.7l1.4,1.6l2.7,2.2
	l2.6,1.4l1,0.1l0.7-0.6l0.2-2.1l1-1.5l3.2-2.2l3.1,0l11.6,1.8l0.8-0.1l0.5-0.6l2-3.4l1.6-1.4l2.5-0.4l7.1,0.9l8.3-0.5l4.3,1l6.3-1.3
	l7.2,0.9l1-0.5l0.2-0.7l-0.6-1.3l-0.1-2.5l1.4-3l0.5-2.6l1.5-1.4l1.9-0.8l1.6,0.1l1.5,1.4l1.7,2.3l3.1,6.2l1.6,2.2l2,1.9
	L1090.5,806.4z"/>
<path id="US-IL_00000079473092189063374540000017984855271305130380_" class="st0" d="M2146,931.3l0,9.6l0.7,7.9l1.4,3.5l1.6,2.6
	l1.7,1.6l2,5.1l2.2,8.6l2.1,5.6l1.6,2.3l-0.1,16.2l0,18l0,18l-0.1,17.9l0,17.9l0,17.7l-0.1,17.7l0,16.6v0.3l-2.1,1.8l-1.4,3.1
	l0.4,3.3l-0.6,2.4l-1.4,1.4l0.7,3.6l2.8,5.8l1.7,5.7l0.6,5.6l-0.5,4l-2.5,3.7l-2.4,7.9l-2,3.1l-2.5,1.1l-2.2,2.9l-1.9,4.8l-2.1,2.3
	l-2.2-0.1l-1.6,0.9l-1.1,1.9l0.1,2l1.3,2.1l-0.4,1.9l-2.2,1.8l0,0.9l0.7,0.5l-0.2,0.8l-1.4,0.9l-0.8,2.7l0.1,4.4l-0.8,2.2l-1.4,0.1
	l-0.2,1.2l2.4,5l-1.4,1l-2.5,4.1l-0.5,4.5l1.5,4.9l-3.8,4l-9.1,3l-4.8,2.7l-0.5,2.3l0.6,3.5l1.8,4.7l0.3,3.3l-1.2,1.8l-6.5-1.3
	l-11.8-4.3l-7.9,0.1l-4,4.6l-1.4,3.5l0.5,2.8l-3.2-3.4l-2.2-1.5l-0.4,0.1l-0.5,0.4l-0.2,1.1l0.1,0.8l0.3,0.9l-0.1,0.5l-0.5,0
	l-2.3-1.3l-2.8-3.8l-3.3-6.3l-0.7-5l1.9-3.7v-3.9l-1.9-4.1l-0.9-4v-3.9l-4.5-5.9l-9.1-7.8l-6.7-4.9l-4.3-1.8l-5-3.9l-5.7-6l-3-4.6
	l-0.4-3.2l2.6-8.5l7.5-18.7l0.9-2.2l0.2-0.8l-0.3-0.8l-0.7-0.8l-3.2-2.2l-6.1-1.9l-5.6-1l-4.5,2.2l-3.9-4.5l-3.4-11.3l-8.3-12
	l-13.2-12.6l-7.7-8.6l-2.1-4.5l-1.9-6.9l-1.5-9.2l0-7.6l2.7-9.1l2.3-1.1l0.5-3l-0.6-5.3l2.5-4l5.6-2.7l5.2-6l4.6-9.3l2.1-6.7l-0.4-4
	l-1.7-3.8l-3-3.6l-0.7-4.4l1.5-5.4l5-3.4l8.3-1.4l7.6-2.7l6.8-4l4.1-4.3l1.3-4.7l1.9-3.7l2.7-2.6l1.9-4.3l1.1-5.9l0.1-4.4l-0.8-2.8
	l-3-3.3l-5.2-3.7l-2.9-3.5l-0.7-3.3l-2.7-3.5l-4.8-3.8l-2.8-4.2l20.8,0.2l20.5,0.1l20.5,0.1l20.5,0.1l20.5,0.2l20.5,0.1L2146,931.3z
	"/>
<path id="US-IN_00000164485250477692732570000017051992296548408489_" class="st0" d="M2283,979.8l-0.1,19.7l-0.2,19.6l-0.1,19.4
	l-0.1,19.4l-0.1,19.3l-0.1,19.2l-0.2,19.1l0,19.4l-0.7,0.5l-1.1,2.5l1.2,2.6l0,2.1l-1.3,1.6l0.4,1.2l2.1,0.8l0.8,1.8l-0.5,2.8
	l-4.6,2.8l-8.7,3.3l-1.9,0.9l-1.5,0.4l-0.7-0.2l0,0l-1.2-0.6l-1.6-1.3l-2.8-0.6l-4.5,0.4l-1.8,2.7l0.9,5l-1.5,3.9l-4,2.7l-2.8,3.5
	l-1.7,4.4l-2.8,2.7l-3.7,0.9l-3,4.1l-2.3,7.1l-2.5,4.4l-2.7,1.7l-3.8-0.4l-4.7-2.6l-2.7-2.6l-0.7-2.8l-1.4-1.9l-1.3-0.9h-0.9l0,0.4
	l0.4,0.8l-0.5,0.8l-2.9,0.3l-1.3,1.1l0.4,2l-0.7,1.4l-1.7,0.8l-0.9,1.9l-0.1,2.9l-1.2,2.7l-2.3,2.4l-3.4-0.8l-4.4-4.1l-4.5-1
	l-4.6,2.2l-3.4,2.9l-2.3,3.7l-2.1,0.9l-3.1-2.8l-7.4-3.9l-3.9-0.8l-2.8,0.9l-1.9-0.4l-0.7-1.1l-0.5-0.4l-0.5,0.5l0,3.4l-0.7,2.1
	l-1.3,0.9l-1-0.7l-0.7-2.3l-1.6-0.8l-2.5,0.8l-2.6-0.3l-2.2-1.4l-0.8,0.1l-0.6,0.7l0.2,2.7l-0.5,2.1l-1.2,1.4l-1.6,0.3l-2.2-0.7
	l-0.9,0.7l-2.4-5l0.2-1.2l1.4-0.1l0.8-2.2l-0.1-4.4l0.8-2.7l1.4-0.9l0.2-0.8l-0.7-0.5l0-0.9l2.2-1.8l0.4-1.9l-1.3-2.1l-0.1-2
	l1.1-1.9l1.6-0.9l2.2,0.1l2.1-2.3l1.9-4.8l2.2-2.9l2.5-1.1l2-3.1l2.4-7.9l2.5-3.7l0.5-4l-0.6-5.6l-1.7-5.7l-2.8-5.8l-0.7-3.6
	l1.4-1.4l0.6-2.4l-0.4-3.3l1.4-3.1l2.1-1.8v-0.3l0-16.6l0.1-17.7l0-17.7l0-17.9l0.1-17.9l0-18l0-18l0.1-16.2l0.3,0.4l1.7,1.5
	l1.4,0.9l1,0.1l0.6,1.4l2.6,0.8l4.7,0.3l4.3-0.5l3.9-1.4l9.6-5.5h11.2h13.8l13.8,0h13.8h13.8h13.8h13.8L2283,979.8z"/>
<path id="US-KS_00000158723038402196185480000013785778816307956384_" class="st0" d="M1836.9,1255h-10.5h-10.5h-10.5h-10.5h-10.5
	h-10.5h-10.5h-10.5h-10.5H1732h-10.5H1711h-10.5H1690h-10.5H1669h-10.5H1648h-10.5H1627h-10.5H1606h-10.5H1585h-10.5H1564h-10.5
	H1543h-10.5H1522h-10.5H1501l0-10.6v-10.7l0-10.7l0-10.7v-10.8l0-10.8l0-10.8l0-10.8v-10.9l0-10.9l0-10.9v-10.9l0-11l0-11v-11
	l0-11.1h9.5h9.6h9.5h9.5h9.5h9.6h9.5h9.5h9.6h9.5h9.5h9.6h9.5h9.5h9.6h9.5h9.5h9.5h9.6h9.5h9.5h9.6h9.5h9.5h9.6h9.5h9.5h9.6h9.5h9.5
	h9.5h8.2l10.5,7.6l2.8,0.1l3.2-1.2l2.5,1.7l1.7,4.7l-0.2,2.4l-2.1,0.1l-2.7,2.8l-3.2,5.5l0.8,5.2l4.8,4.8l3.2,4.9l1.6,4.9l3.2,3.8
	l7,4.1l-0.1,2.2v7.6l0,7.6v7.6v7.5l0,7.6v7.5l0,7.5v7.5v7.5l0,7.5v7.4l0,7.4v7.4v7.4l0,7.4L1836.9,1255z"/>
<path id="US-KY_00000055706669282645460660000000610811058509227929_" class="st0" d="M2382.1,1172.2l1.1,1.6l0.5,8.5l-0.3,1.7
	l-1.5,3.5l0.1,1.8l1.3,2.9l4.8,6.7l0.5,2.6l1.9,2.6l1.6,3.8l5.2,8.1l8,6.7l6.3,1.8l-17.2,13.8l-7.9,5l-7.5,4l-0.6,0.7l-1.7,4.4
	l-4.5,3.9l-2.8,4.1l-6.8,3.4l-4.8,4.7l-12.1,4.6l-6.8,1.6l-4.6,2.7l-0.3,0.1l-0.3,0.1l-0.3,0.1l-0.3,0.1l-0.3,0.1l-0.3,0.1l-0.3,0.1
	l-0.3,0.1l-15.8-0.5l-15.8-0.5l-15.8-0.5l-15.8-0.5l-15.8-0.5l-15.8-0.5l-15.8-0.5l-15.8-0.5l-15.1,0.3l-15.1,0.3l-15.1,0.3
	l-15.1,0.3l-1.4-1.7l-4-0.4l-6.1-0.6h-0.2l1.8,5.8l0,5l-0.1,0h-7.1h-7.9h-7.9h-7.9h-7.9h-7.9h-7.9h-9l2.4-4.9l2.1-1.3l1-0.2l2.3,0.9
	l1.1,0.3l2.4-1.7l2.1-5.1l1.2-5.4l0.3-5.7l-1.4-4.5l-0.5-2.8l1.4-3.5l4-4.6l7.9-0.1l11.8,4.3l6.5,1.3l1.2-1.8l-0.3-3.3l-1.8-4.7
	l-0.6-3.5l0.5-2.3l4.8-2.7l9-3l3.8-4l-1.5-4.9l0.5-4.5l2.5-4.1l1.4-1l0.9-0.7l2.1,0.7l1.6-0.3l1.2-1.4l0.5-2.1l-0.2-2.7l0.6-0.6
	l0.8-0.1l2.2,1.4l2.5,0.3l2.5-0.8l1.6,0.8l0.7,2.4l1,0.7l1.3-0.9l0.7-2.2l0-3.4l0.5-0.5l0.5,0.4l0.7,1.1l1.9,0.4l2.8-1l3.9,0.8
	l7.4,4l3.1,2.8l2.2-0.9l2.2-3.7l3.4-2.9l4.5-2.2l4.5,0.9l4.4,4.1l3.4,0.8l2.3-2.4l1.2-2.7l0.1-2.9l0.9-1.9l1.7-0.8l0.6-1.4l-0.4-2
	l1.3-1.1l2.9-0.3l0.5-0.8l-0.3-0.8l0-0.4h0.9l1.3,0.9l1.4,1.9l0.7,2.7l2.8,2.7l4.7,2.6l3.7,0.4l2.8-1.7l2.5-4.4l2.3-7.1l3-4.1
	l3.7-0.9l2.7-2.7l1.7-4.4l2.8-3.5l4-2.7l1.5-3.9l-0.9-5l1.8-2.7l4.5-0.4l2.8,0.6l1.6,1.4l1.2,0.6l0,0l0.7,0.2l1.5-0.4l1.9-1l8.7-3.2
	l4.6-2.9l0.5-2.8l-0.8-1.8l-2.1-0.8l-0.4-1.2l1.3-1.6l0-2.1l-1.2-2.6l1.1-2.5l0.7-0.5l2.6-1.9l2.7-0.2l2.1,2l3,0.5l3.9-1l3.6,0.7
	l3.3,2.4l3.1,4.4l2.8,6.4l5.2,3.9l7.5,1.4l5.5,2.5l3.4,3.6l2.8,1.2l3.3-1.9l3.5-1l3.5,1.2l4.7,3l7-0.7l9.2-4.3l5.5,0.2l1.6,4.8
	l3.9,5l6.2,5.2L2382.1,1172.2L2382.1,1172.2z M2069.9,1283.1l-3.2,0.1l-0.1-0.7l0.2-1.5l0.2-0.7l0.6-0.1h0.7l1,1.4L2069.9,1283.1
	L2069.9,1283.1z"/>
<path id="US-LA_00000050648745694518121860000004648631602679457705_" class="st0" d="M2068.4,1624.9l-3.1,1.4l-16.6-5.4l-4.1-4.3
	l-3.7-0.9l-4.5-0.5l-4.8,5.3l-3.7,7.2l5.8,3.9l5,1.9l8.3-1.6l4.5-3.5l3.7,0.1l1.8-0.7l1.6-1.8l3.2,1.4l0.1,1.4l-2.3,2l-2.8,1.7
	l-1.7,2l3.2,4.1l5.1,1.4l1.9-0.6l1.2-4.5l3.1-2.9l4.2,0.6l-0.6,1.8l0.6,1.7l2,2.9l-0.2,4.2l0.4,1l-4.6,1.9l-3.4,0.6l-2.8,2.5
	l1.4,1.4l-2.8,1.3l-1.9-0.5l-1,0.5l-0.3,1.5l-1.4,1.4l2.1,4.2l4.3,2.8l3,3.4l12.2,4.5l2.9-0.1l2.9,4.5l2.3,1.5l2.3,0.8l-0.2,3.1
	l-4,2.3l-1.1,2.7l-1,1.5l-1.8-1.9l-1.8-1.4l-4.3,4.2l-2.1,0.9l1-4.6l-1.6-1.8l-2.5-4.6l-3.6-2.8l-2.5-1l-2-1.8l-2.4-0.7l-2,0.2
	l-3.4-1.1l-0.2-2.5l-1-1.8l-2.7-2.2l-12.8-4.1l-0.1,1.7l0.9,1.3l1.8,0.9l2.2,1.6v4.9l-1,2.1l-0.4,2.9l-0.8,3l-1.6,2.4l-3.5,1.6
	l-1.5-1.4l-2.5-6.5l-3.5-2l-5.6-0.2l-3.8,1.4l-4.1,6.3l-3.3,1l-11.4-3.2l-13.1-4.9l0.3-1.6l2.1-0.5l4,0.7l-0.2-1.7l-4-5.5l-0.7-2.5
	l0.5-3l-1.3,0l-2.4,2.6l-8.3-2.2l-2.3-2.6l-4.9-7.3l-6.9-0.2l-3.2-4.3l-5.6,1.9l-2.8,2.1l-2.5,3.2l1,1.6l2.5,2.6l-1.2,1.3l-8,1.9
	l-18.6-2.1l-5.5-2l-7.3-4.1l-10.1-3.4l-4.9-0.5l-4.8,0.7l-13.9,0.3l-3.2,0.9l-2.8,1.4l-1.8-1.6l-0.8-2.8l1.6-0.5l1.8-1.6l1.6-3.3
	l0.2-2l-1.1-1.3l3-5.2l0.7-1.9l-0.5-8.9l-1.4-3.2l0.2-1.9l1.4-4.9l-0.2-4.4l2.5-5.4l1.8-2.8l2.1-5.7l0.5-3.7l0.9-2.8l-0.6-3l1.4-2.2
	l-1-3l-0.3-4l-1.8-1.5l-3.1-6l0.1-2.6l-3.3-5.6l0-1.9l-3.1-2.9l-0.6-1.9l-0.3-7.8l-0.9-2.3l-2.7-4.5l-6.3-6.5v-6.8v-6.8v-6.8v-6.8
	v-6.8v-6.8v-6.8v-6.8h8.2h8.2h8.2h8.2h8.2h8.2h8.2h8.2h8.2h8.2h8.2h8.2h8.2h8.2h8.2l8.9,0l0.2,2.7l2.2,1.6l0.1,2.8l-1.9,4.1v2.8
	l2,1.6l-0.1,1.7l-2.2,1.8l-0.3,1.9l1.5,2.1l0.7,2.4l-0.1,2.8l2,3.6l3.1,2.3l2.1,2.7l0.2,1.5l0.1,1.4l-0.4,2l-2.6,2.9l-2,2.1
	l-1.2,0.8l-0.6,1.4l-0.2,3.1l-2.9,4l-5.9,4.6l-3.9,5.9l-1.9,7.1l-2,4.5l-2.1,1.9l-1.1,3.7v5.5l-1.4,3l-2.7,0.6l-0.6,3.1l1.5,5.7
	l-0.7,2.4l-1.9,1.9l-0.2,1.4l10.9,0h10.9h10.9h10.9h10.9h10.9h10.9h10.9l-1.4,6.1l-3.2,8.2l-0.1,2.1l0.8,2.7v1.5l1.2,2.2l2.6,2.2
	l2.3,3.3l2,6l0.5,2.8l1.7,3.8l0.9,0.7l1.3,0.4L2068.4,1624.9L2068.4,1624.9z M2081.9,1630.6l0.1,2.4l-2.2-1.2l-3.3-0.1l1.4-0.8
	l1-0.8l0.5-0.9l4.1-3l-1.2,2.2L2081.9,1630.6L2081.9,1630.6z M2099.9,1645l-1.3,1.6l1.3-8l-1.8-6.7l1.9,2.9l0.6,3.5L2099.9,1645
	L2099.9,1645z M2097.1,1649.9l-2.5,2.7l0.1-1l1.8-2.8l1.3-1.1L2097.1,1649.9L2097.1,1649.9z M1965.2,1661l-1.7,0.7l-7.5-4.5
	l-0.5-1.9l3.7-1.7l2.3,0.1l3.6,2.3l1.3,0.6l0.6,0.9l-0.3,1.4L1965.2,1661L1965.2,1661z"/>
<path id="US-MA_00000111874936260275211750000010173839070567087247_" class="st0" d="M2918.4,907.9l-1.1,3.2l1.3,3.2l0.9,3.2
	l2.1,3.2l1.8,0.3l1.9-0.6l1.4,0.1l0.9,1.4l-0.4,1.6l-2.2,0.4l-4.1,2.8l-3.6,1.1l-1.8,3.4l-2.7,4l-5.3,6.2l2.3,1.9l8.1,2.1l3.6,2.2
	l5.5,11.5l-1.3,1.2l-0.5,2.1l4.9,2.9l1.5,8.2l4,2.8l6,1.7l7.3-2.5l6.1-3.4l-0.2-2.8l-3.8-6.5l-0.9-3.1l-2.8-2l-1.1,1.7l-1.8-2.2
	l-0.2-1.3l1.7-0.6l2,0.2l2.3,1.2l5.9,7.1l1.6,9.3l0.3,5.9l-0.7,2l-1.7-0.4l-3.3,0.4l-15.7,3l-3.5,2.7l-8,2.9l-0.5-1.4l0.6-3
	l-0.5-6.2l-1.6-0.3l-12.4,10.1l-4.8,0.6l-4,2.9l-0.9-1.6l-0.7-7.5l2.5-6.3l-1.4,0.1l-2.5,2.3l-1.5-2.7l-1.7-1.4l-1.6-1.4l0-2.3
	l0.1-3.4l-1.9-0.7l-0.2-4.2l-0.1-2.8l-3.4,0l-2.8,0l-4.5,0.1l-4.7,0l-3.4,0l0-0.7l-5.5-0.1l-5.5-0.1l-5.5-0.1l-5.5-0.1l-5.5-0.1
	l-5.4-0.1l-5.5-0.1l-5.5-0.1l-0.2,1.4l-2,0.2l0-1.6l-3.8-0.1l-3.8-0.1l-3.8-0.1l-3.8-0.1l-3.8-0.1l-3.8-0.1l-3.8-0.1l-3.8-0.1
	l-1.2-1.5l1.4-5.1l1.4-5.1l1.4-5.2l1.4-5.2l1.4-5.2l1.4-5.2l1.4-5.2l1.4-5.2l4.4,0.2l4.5,0.2l4.5,0.2l4.4,0.2l4.5,0.2l4.4,0.1
	l4.5,0.2l4.5,0.2l6.5,0.2l6.5,0.2l6.5,0.2l6.5,0.2l6.5,0.2l6.5,0.2l6.5,0.2l6.5,0.2l4-1.7l4.7-4.8l2.8-1.1l4.6-2.9l2.3-0.6
	L2918.4,907.9L2918.4,907.9z M2931.8,999.5l-12.5,2.9l-2-1.9l3.1-0.9l4-4.5l2.6-0.5l4.1,2.6L2931.8,999.5z M2956,1006.2l-3.5,1
	l-8.1-2.2l6.7-1.9l1.1-0.7l0.9-2.8l0.1-1.4l2.5,5.9L2956,1006.2L2956,1006.2z"/>
<path id="US-MD_00000052786214413393671850000008624378622727930769_" class="st0" d="M2692.3,1098l0.4,9.3l0.4,9.3l0.4,9.3l0.4,9.3
	l0.4,9.2l0.4,9.2l0.4,9.2l0.4,9.2h0.1h0.1h0.1h0.1h0.1h0.1h0.1h0.1h4.6h10.1h10.1l4.9,0l0,1.7l-0.6,2.5l-1.1,1l0-2.6l-0.7-0.9
	l-1.2,1.1l-0.8,1.3l-0.3,5l-0.8,2.5l-3,0.7l-3,6.5l-2.8,3.7l-1,2.3l-4.2,0.6l-6.9,0.9l-1.8,2.6l-3.4-1.1l-5.3,0.1l1-3.5l1.5-3.1
	l-2.8-3.1l-1.6-0.4l-1.7-1.3l2-2.6l1-2.7l-0.6-3.3l0.8-2.5l-1.4,0.4l-2.2,2.7l-1.4,1.1l-0.8-2.4l-1,0.5l-0.6,1.6l-1.4,0.9l-2.9-2.2
	l-4.3-2.5l-2.4-4.3l-1.4-3.4l1.4-6.1l3-1.1l3.9,1h5.1l-0.7-1.4l-1.8,0.2l-5.4-5l-1.7-3l-3-0.8l-1.4,2.9l-1.5,0.8l1.8-6.3l2.4-0.2
	l3.6-1.7l-1.1-3.7l-2.3-1.6l-4.1,2l0-2.6l0.8-3.3h3.1l2.7,1.1l2.3-5.3l0.1-2.4l-3.8,3.5l-0.9-7.5l3.8-7.2l3.6-3.1l4.5,0.1l4.5-0.5
	l-2.8-1.3l-2.9-0.7l2.2-2.8l1.9-0.5l1.8-2.5l-4.4,0.4l0.5-4.7l-2.2,1l-2.6,0.4l-1,2l0.2,3.3l-0.8,2.2l-2,1.7l-3.4,1.4l-0.3-2.4
	l-1.1-1.1l-0.4,5.1l-0.9,1.7l-2.5-4.7l-0.7,1l0.1,1.4l-0.6,2.3l-2.1,1.2l0.1,3l-0.8,1.6l-6.8-2.6l-0.1,0.9l3.9,5.6l2.8,1.9l0.3,3
	l-2.4,2.5l-3.3-2.2l-0.6,0.1l1.8,3.7l1.2,3.2l-1.2,2.8l0.2,3.3l-0.2,3l-0.7,2.7l1.6,12.2l1.9,3.3l1.9,3.2l1,2.9l-2,0.4l-3.2-2.4
	l-2.8-1.8l-3.4-5.9l-0.6-2.4l-0.8-1.9l0.4,4.3l1.2,4.8l10.6,10.7l2,4.1l1.5,3.2l-0.4,3.1l-2.8-2.2l-2.4-2.8l-6.3-3.1l-8-2l-4.5-7.3
	v3.1l-1,2.6l-2.8-3.2l-1.7-2.7l-0.6-2.9l-3.4,0.2l-3.6,2.6l-3.5-0.6l-0.4-5l0.9-2.7l3.9-6.3l3.7-3.2l1.6-4.1l-0.5-6.5l0.5,4.8l4-4.7
	l-2.6-3.7l-2.4-3.5l-3.6,4l-3.1-1.5l-5-4.9l-8.2-3.5l-1.2-1.7l0.1-1.9l1.1-2.7l-2.5-2.6l-6.1-2.6l-2.6-2.2l-0.6-0.5l-0.2-2.7
	l-0.8-1.7l-1.4-0.7l-0.2-1.2l0.8-1.6l-0.8-1.7l-2.5-1.8l-0.9-1.6l0.8-1.4l-1.3-0.6l-3.3,0.1l-3.2-1.3l-3.2-2.8l-3.8-0.5l-6.6,2.8
	l-3.7,0.7l-1.6,1.5l-0.8,2.7l-1.6,1.4l-3.6,0l-0.6-0.1l-4.1-0.9l-2.9-1.6l-0.5-0.7l0.3-1.4l-0.5-0.6l-0.9-0.1l-0.8,0.8l-0.9,2.5
	l-7.1,6.9l-3.4-1.4l-1.3,0l-9.9,9.6l-3,1.5l-5.8,4.3l0.1-7.5l0.1-7.5l0.1-7.5l0.1-7.5h10.5h10.5h10.5h10.5h10.5h10.5h10.5h10.5h10.5
	h10.6h10.5h10.5h10.5h10.5h10.5h10.6L2692.3,1098z M2717.6,1195.7l-1.2,0.1l1.2-2l4-9.6l1.8-3.3l-1.7,6.8l-3,6.2L2717.6,1195.7
	L2717.6,1195.7z"/>
<path id="US-ME_00000041253377638713056210000002082272745863868304_" class="st0" d="M2998,624.5l0.2,1.4l2.1,2.5l3,1.7l2.3,0.6
	l2.7,0l7.3-3.3l8.5-2.2l4.7-2l0.9-1.9l2.1-0.7l3.4,0.6l6.3,4.7l7.3,7.1l5.8,5.6l0.2,9.7l0.1,10.3l0.1,10.9l0.1,7.7l0.1,10.6l0.1,8.4
	l0.1,10.9l0.1,5.8l0.8,1.7l-0.5,2.3l-0.2,1.2l0,0.9l0.3,1.2l0,1.6l-0.7,1.4l-0.4,1.7l-0.1,2.8l0.8,1.7l1.4,1h1.1l1.4,1l1.9,1.7
	l2.8,1.5l2.9,0.5l2-0.4l2.5,1l0.9,2.4l-0.5,2.3l-1.4,1.1l-1.5,0.8l-0.2,1.7l0.7,1.8l1.1,1.6l1.2,2.8l-0.5,2.4l-1.1,2l-0.5,2.1
	l0.9,1.8l2.4,2.4l1.5,2.3l2.4,1.3l1.1-0.9l0.9-1.2l1-0.9l1.6,0.5l1.9,0.7l2.1,0.8l-0.2,2l1.3,3.3l1,6.3l-1.5,2.8l0.3,3.8l4.2,1.1
	l1,1.2l0.2,1.4l-9.3,9.7l-7.9-1.4l-4.2,2.6l-4.4,0.8l-2,4.3l-2.5,0.9l-3.3-0.2l-2.9-1.2l-2.2,0.6l-3.1,7.8l-2.5-0.7l-1,2.8l-1.3,1.2
	l-1.9,1.1l-1.7-3.5l-1.1-3.3l-1.6-0.7l-2.1-0.8l-2.2,0l-1.4,0.5l-1.8,2.1l-2.6,1.8l-2-1.5l-1.5-2.5l-1.3,3.9l-1.9,4.1l0.3,4.8
	l-0.8,2.8l-1.8-0.8l-1.8-2.5l-5.1-2l-4,0.2l0.8-2.7l3.8-3.9l-1.2-0.8l-1.9,0.5l-0.8-0.5l1.4-3.5l0.1-3.9l-1.7,1.4l-2.1,4.1l-5.2,3.2
	l0.2,5.5l-4.9,11.1l-0.2,4.7l-3.1,3.8l-4.1,3.2l-5.4-0.9l-4.1,2.8l-2.1,3.2l-1.8,0.5l-1-4.1l-0.7-1.3l-1.5,6l-1.5,0.4l-0.6-4.3
	l-0.7-2.8l-2.1,2.5l-1.4,6.5l-1.4-0.5l-0.5-2.4l-1.1-0.7l-0.3,2.8l0.5,3.9l-0.8,2.1l-1.4-1.1l-1.4-1.8l-2.4,1.4l-2.2,0.6v-1.9
	l0.4-2.3l-4.4,1.3l-5.3,4.3l-4.1,5.9l1.4,1l1.6,1.9l-7.1,9.1l-7.3,8.2l-5.5,13.3l-2.2,1.5l-1.9,2.4l-3.6-5.8l-0.7-4.7l-4.1-5.5
	l-1.6-3.8l-0.5-4.3l0.2-4.6l-0.3-6.9l-0.3-6.9l-0.3-6.9l-0.3-6.9l-0.3-7l-0.3-7l-0.3-7l-0.3-7l-0.3-7l-0.3-7l-0.3-7l-0.3-7.1
	l-0.3-7.1l-0.3-7.1l-0.3-7.1l-0.3-6.4l1.1-1l2.8-1.8l1.8,0.2l1.5,2.8l1.3,1.8l1.5-0.5l1.3-2.6l0-3.6l1.7-2.5l2.1-0.4l1.9,0.1l1-1.2
	l-0.1-1.7l-0.7-2.8l0.2-3.4l4.8-6l5.9-4.1l2.1-2l0.6-4.1l3.4-4.3l1.7-2.5l0.4-2.2l-0.9-2.7l0.1-5.1l1.2-6l1.4-6.6l3.1-5.9l5.1-6.5
	l1.3-8.6l1.4-9.1l6.2-8.9l7-10.1l4-5.7l7.2-10.5l5.1-7.5l2.6-3.4l2.7-4.1l4.4,1.2l4.3,1.2l-0.6,5.9L2998,624.5L2998,624.5z
	 M3037.3,816.9l-2.7,1.3l-2.9-0.5l0,3.3l-0.3,1.2l-3.2-1.7l-1.2-1.1l0.1-4.4l2.8-4.2l2.2-1.6l2.8,1.2l2.1,4.7L3037.3,816.9
	L3037.3,816.9z M3017.5,825.6l-1.7,1.3l-1.8-0.4l0-3.1l0.6-1.1l0.6-0.5l1,0.9L3017.5,825.6z"/>
<path id="US-MI_00000014607230429313793590000010682635853001907075_" class="st0" d="M2094.1,582.1l-0.2,1.1l1.6,0.3l-0.3,0.6
	l-1.8,1l-5.1,2.1l-3.4,0.7l-1.7-0.7l-0.2-1.4l1.4-2v-1h-1.4l0.3-0.8l2.1-1.6l17.8-10.2l7.6-3.7l4.1-1.2l0.7,0.6l-4.4,3.9l-0.7,1.6
	l0.2,1.1l-1.4,2l-13,7.1L2094.1,582.1L2094.1,582.1z M2127.4,630.1l-0.8,2.2l0.1,1.3l-5.5,5.7l-2,3.6l-1.7,0.6l-1.4-2.5v-2l1.4-1.5
	l1.4-2.1l0.2-2.9l-0.5-1.1l-1.7,2.7l0.9,0.6l0.3,0.4l-0.3,1l-6.3-1.4l-1.9-2.1l0.3-2.8l2.1-3.7l7.6-7.8l3.4-2.2l9.6-3.4l5.3-0.8h5.3
	l3.8,1.1l2.4,2.3l-2.3,1.5l-10.5,1.3l-0.3,0.4l2,1.2l0.4,0.9l-1.8,2.3L2127.4,630.1L2127.4,630.1z M2302.9,676.8l1.4,0.9l1,1.4
	l2.4,4.1l1.2,2.8l0.7,4.1l0.5,1.4l0,2.4l-1.6,1.6l-0.4,1.3l1,1.3l5.4,0.3l2.5,1.3l0.9,1.4l-0.6,1.5l0.3,1.6l1.3,1.7l4.3,2.7l1.1,1.3
	l-0.3,1.4l-1.3,0.9l-2.3,0.4l-16.5-2.5l-4.8-0.4l-0.7,0.9l-0.5,0.1l-0.8-0.2l-1.4,0l-0.7-0.6l-0.6-1.6l-1.4-1.1l-2.3-0.5l-2,1.3
	l-2.3,4.9l0.3,0.9l-0.4,3.2l0.6,0.9l0,0.7l-0.6,0.6l-1.4-0.1l-2-0.8l-7.7-7.5l-5.8-3.7l-7.2-2.8l-5.7-1.4l-4.2,0l-3.5,1.9l-2.7,3.8
	l-4.2,2.1l-5.7,0.5l-3.1,1l-0.5,1.5l-2.1,0l-3.7-1.4l-3.8-0.4l-3.9,0.6l-2.8,1.5l-3,4.6l-0.6,2.3l-2.2,2l-5.8,3.1l-0.3,1.2l-3,3.5
	l-1,1.9v1.9l-1-0.1l-2.1-2.1l-0.1-2.8l1.9-3.6l1.7-1.7l1.5,0.1l0.9-1.6l0.3-3.3l-0.5-1.6l-2.9,0.6l-1.5,1.3l-1.9,0.3l-2.3-0.8
	l-2,1.8l-1.8,4.3l-2.1,2.8l-2.5,1.4l-1.6-1.5l-0.8-4.3v-3.4l1-4.1l-0.5-0.8l-1,1.3l-1.5,3.4l-2.1,7.4l-1.4,2.4l-1.8,1l-2.8,4.5
	l-3.9,8l-4.4,7.7l-4.9,7.4l-2.9,4l-1,0.6l-0.4,1.4l-0.1,3.1l-2.2-0.9l-1.8-2.5l-1.1-2.6l-0.1-2.7l2.7-6.6l0.2-1.1l-0.3-0.6l-1.4-0.7
	l-3.3,1.2l-3.3,0.2l-1.1-0.4l-0.4-1.2l0-1.8l0.7-2.1l2-3.9v-3.7l0.9-2.1l-0.9-4l0.2-1.9l-1.4-2.1l-3.8-2.7l-8.8-3.6l0.9-4.1
	l-0.4-1.7l-2.2-2.6l-9.2-3l-6.3-1.4l-6.2,0l-4.4-1.1l-5-0.3l-3.2-1.8l-3.2-1.8l-3.2-1.8l-3.2-1.8l-5.7-1.6l-5.7-1.6l-5.7-1.6
	l-5.7-1.6l-5.7-1.6l-5.7-1.6l-5.7-1.6l-5.7-1.6l-1.3-2.8l-1.3-2.8l-1.3-2.8l-1.3-2.8l-2.6-1.2l-1.4-0.6l-1-1.4l-2.3,0.6l-0.9-2.4
	l0.2-0.5l3-0.6l8.5-3.4l7.3-4.2l6-5l7.5-3l9-1.1l6.4-1.7l3.9-2.4l5.2-4.7l2.9-1.4l3.7-0.4l2.8-1.8l1.9-3.2l3.5-3.6l5.2-4.1l2.9-1.6
	l0.7,0.8l0.3,1.4l-0.2,2.1l1.3,1.7l2.8,1.3l1.3,1.7l-0.2,2.2l0.8,1.8l1.7,1.5l0.5,3.3l-0.8,5.1l-0.1,3.3l0.6,1.5l0.6,0.8l1-0.8
	l1.3-1.8l0.4-1.1l0.3-1.1l7.6-5.1l1.5-0.2l2.5,1.3l11.4,1.8l4.5,1.3l4.8,2.9l1.6,1.1l5.8,9.5l2.7,3.7l1.6,1l0.9,1.4l0.8,3.3l0.9,1
	l8.5,0.7l3.9-0.6l2.4-1.4l2.6,0.9l2.8,3.1l2.8,0.9l2.8-1.4l2.6,0l2.5,1.4l1.2,1.1l0.7,0l4.8-4.7l5.8-4.1l7.8-4.5l4.5-2l1.3,0.5
	l7.2-1.5l6.5-0.1l8.5,0.9l7.9-1.1l7.3-3l6.5-1.7l5.6-0.4l2.1,0.9l-1.4,2l-0.7,3.5l-0.1,5l-0.5,3.1l-0.9,1.3l-0.1,1.3l0.6,1.2
	l5.5,0.8l2.8,1.6l3.3,0l3.7-1.4l2.8,0.5l2,2.6l2.8,0.5l2.8-1.8l2-1.7l1.7-0.8L2302.9,676.8L2302.9,676.8z M2313.1,686.2v1.4
	l-1.4-0.3l-1.2-1l-0.9-1.6l-1.2-4l-1.8-2.8l2.7-3.2l1.6-0.4l1.7,0.7l0.2,1.9l-1.3,3l0,3.1L2313.1,686.2L2313.1,686.2z M2313.7,693.8
	l-0.6,0.4l-2.3-2.6l-0.5-1.6l0.3-1.3l0.9,0l1.4,1.2l0.8,1.4l0.2,1.6L2313.7,693.8z M2341.7,709l0.4,1.4l-1.1,2.1l-3.2,1.1l-6.5-0.1
	l-4.2-0.8l-1.9-1.5l-0.4-0.8l0.2-1.7l0.9-0.1l1.4,0.9l2.1-0.4l2.8-1.7l1.4-1.3l0.1-0.9l-0.9-1.6l0.7-0.7l3.4,0.6l1.3,1.1l2.3,3.7
	L2341.7,709L2341.7,709z M2293.8,721.6l5.8,0.9l0.6-0.5l1.6,1.7l0.2,1.4l-0.7,1.2l-1,0.7l-1.3,0.1l-2.1-1.3l-3.4-3.3L2293.8,721.6
	L2293.8,721.6z M2284.5,723.4l3.2,1.2l5.8,4l5.5,2.3l5.2,0.7l3.8,1.4l2.4,2.2l1.7,2.4l1.1,2.7l2.5,1.5l3.9,0.3l3.1,1.1l2.3,1.9
	l12.5,5l5.2,2.6l2.9,2.6l0.8,1.6l-0.2,1.6l0.3,1.7l2.1,3.4l0.8,0.3l0.5,1.6l0.2,2.9l0.6,2l1.1,1l-0.6,0.4l-3.9-1.7l-2.2,0.5l-1,2.2
	l-0.1,2.1l0.7,2l4.9,5.9l1.3,5.4l0.2,6.5l-0.6,2.5l-0.5,5.5l-0.4,8.6l-0.1,2.9l-1.6,2.8l-4.4,4.1l0-0.8l-1.1-0.2l-1.2,0.6l-1.6,3.5
	l-1.4,6.4l-1.6,3.5l-1.9,0.5l-1.2,0.9l-0.4,1.3l-2.1,0.9l-3.8,0.4l-2.6,1.9l-1.9,5.5l0.1,2.6l-0.9,3.2l0,2.8l1,2.3l3.1,2.3l5.1,2.3
	l3,0.3l2.1-1l2.2-3.8l2.1-1.5l2.6-0.6l1-1.7l4.3-7.6v-1.7l-1.5-0.6l0.2-0.5l2-0.3l1.7-1l1.5-1.7l2.6-1.3l6.4-2l3.4-2.3l2.2-0.4
	l3.1,1.2l4.1,2.8l3.2,4.1l2.4,5.3l3,13.8l3.7,22.1l2.5,12.3l1.4,2.6l0.7,1.3l-3.2,17.2l-2.6,7l-4.5,4.1l-4.5,4l-5.6,6.7l-6.2,3.3
	l-3.1,1.9l-0.7,1.3l-0.8-0.4l-1.7,3.6l-1.5,5l-0.6,3.8l0.5,2.1l-1.3,1.4l-2.3,2.5l-0.4,0.9l0.1,1.5l-0.5,0.7l-1.1,0l-0.9,0.7
	l-2.1,2.7l-3.6,6.9l-0.6,1.3l-0.4,0.4l-15.1,0.6l-15.1,0.6l-15.1,0.6l-15.1,0.6v-3.5h-13.8h-13.8h-13.8h-13.8h-13.8h-13.8h-11.2
	l2.9-1.7l4.8-4l2.7-3.5l2.6-4.6l2.5-5.7l5.1-8.6l2.5-5.2l2.4-6.7l1.8-6.9l1.2-7.3l0.6-7.6l0-7.9l-1.2-7.9l-2.4-8l-1.3-4.1l-0.5-1.1
	l-4.3-10.3l-4.9-14.4l0-1.2l4.5-8.6l0.1-1.2l-0.5-7l-1-3.5l-2.3-4.7l0.1-1.2l4.7-6l2.8-4.6l2.6-5.6l1.7-6.5l0.8-7.5v-5l-0.8-2.5
	l0.1-1.9l1-1.4l5.1-1.7l1.7-2.9l0.4-5.2l1-2.6l1.7,0l1.6-1.1l1.4-2.2l1.9-0.6l2.4,1l3.3-3.2l4.3-7.4l3.3-4.1l2.3-0.9l0.4,0.7
	l-1.4,2.2l-0.4,2.5l0.6,2.7l-0.5,2.6l-1.1,3.5l0.7,1.1l-1.8,5.6l-0.1,2.8l1.1,2.1l1.4-0.7l1.5-3.6l0.5-1.9l-0.6-0.2l0.2-1.5l1.1-2.8
	l1-1.4l0.8,0.1l0.2,1.5l-0.4,2.9l-2.5,7l-0.5,2.1l0.5,0.6l2.9-4.3l2.5-6.9l1.9-5.4l0.3-2.9l-0.6-7.5l0.1-3.1l0.7-2.1l2.6-2.4
	l4.4-2.7l4.3-1.4l4.3-0.2l3-0.7l1.7-1.3l-0.6-1l-2.9-0.8l-2.2-1.7l-1.5-2.6l-0.5-3l0.5-3.4l1.8-3.3l3.2-3.2l1-2.4l-1.2-1.5l1.4-0.5
	l3.9,0.4l2.7-0.4l1.5-1.3L2284.5,723.4L2284.5,723.4z M2248.7,735.7l-1.5,0.3l-1.2-0.8l0.2-3l1.6-5.3l1.5-2.4l2.1,1l-0.4,0.6
	l0.4,5.6l-0.8,2.5L2248.7,735.7z M2229.4,767.9l-0.5,0.9l-1.3-0.1l-1-0.9l-1-2.8l0.3-0.6l2.5,0.4l0.9,1.2L2229.4,767.9L2229.4,767.9
	z"/>
<path id="US-MN_00000169528307970425778260000008987347129731951525_" class="st0" d="M1893.2,535.1l5.5-0.8l4.7,0.2l4.7,0.4
	l2.5,0.6l7.2,3l4.7,2.5l6.8,4.6l3.8,2l1.8,4.7l2.1,6.1h3l2.3-3.6l5.7-0.6l7.6,2.5l6.7,7.1l9.6,6.3l5.8,3.1h5.9l7.6-3.1l8.1-6
	l5.8-1.1l3.4,0.6l1.9,4.7l2.4,1.8l6.2-0.5l13,0.9l10.4-1.3l2.4,2.7l2.1,4.2l4.2,1.4l5.7-1.4l9,0.9l-1.3,0.7l-1.3-0.1l-1.7,1
	l-2.2,2.2l-5,3.1l-7.8,4.1l-9,3.7l-18.2,6.7l-11.3,6.9l-5,4.1l-19.5,20.6l-11.8,11l-19.1,15.3l-1.8,1.9l-0.1,1.8l-0.8,0l-3.1,3.7
	l-1.4,2.4l-3.1,0.7v9.5v9.5v9.5v9.4l-1.5,1l-1.9,2.2l-2.6,0.5l-12.3,7.7l-2,2.2l-2.2,5.2l-4,5.8l-1,3.1l0.2,4.1l6.1,3.3l2.3,3.2
	l1.1,3.9l-0.1,3.4l-3.1,6.6l-0.5,2.7l0.3,8.1l-1.5,2.5l1.3,6.5l0.1,2.3l-1,7.1l-0.7,2.1l1.2,3.7l0.1,0.4l5.7,5.1l4.8,2.8l4.3,0.9
	l3.4,2.2l2.5,3.5l3.3,2.3l4.1,1.1l4.2,2.9l6.5,7l3.2,6l5.6,4.2l9.2,4.5l6,4l2.8,3.4l1.9,8.7l1.5,18.4l-15,0H1960h-14.8h-14.8h-14.8
	H1901h-14.8h-14.8h-14.8h-14.8h-14.8h-14.8h-14.8h-14.8h-14.8h-14.8v-14v-14.1V827v-14.2v-14.2v-14.3v-14.4v-14.4l-3.5-4.8l-7.6-3.9
	l-1.9-2.3l-3.5-5.8l-1.4-2.5l-0.2-1.9l1.7-2.2l6.9-6.3l2.2-2.9l1.1-2.8l1.6-6.5l-0.6-5l0.4-7.8l-1.4-5.8l-0.3-2.9l-0.9-3.6l-5.2-9.6
	l-1.3-7.7l-1.3-3.8l-0.4-9.8l0.1-2.8l1-5.4l-2.2-3.6l-0.3-3l-1-23.6l-0.7-3.4l0.2-11l-4-11.6l-1.9-4l-1-4.8l0.1-2.3l-3.2-8l-2.2-8.8
	l0.2-7.7l-0.7-5.8l0.2-4.5l-0.6-6.8l0.7-3.9l0-6l-4.4-21.5h5.5h19.3h19.3h19.3h19.3l10.7,0.1l0.2-14.6l0.1-11.6l9.8,1.4l2.9,2.1
	l0.9,1l-0.3,3.2l0.8,9.6l1.8,8.1l4.1,9.6v0l0.3,3.8l1.4,2.4l2.5,2.2l9.4,2.7l16.3,3.1l9.3,3.5l2.2,4l4.3,1.6l6.5-0.8l4.6-1.7
	L1893.2,535.1L1893.2,535.1z M1893.2,535.1h-0.2H1893.2L1893.2,535.1z"/>
<path id="US-MO_00000151541304083931234740000004669012902063436685_" class="st0" d="M1981.2,1059.1l-2.7,9.1l0,7.6l1.5,9.2
	l1.9,6.9l2.1,4.5l7.7,8.6l13.2,12.6l8.3,12l3.4,11.3l3.9,4.5l4.5-2.2l5.6,1l6.1,1.9l3.2,2.2l0.7,0.8l0.3,0.8l-0.2,0.8l-0.9,2.2
	l-7.5,18.7l-2.6,8.5l0.4,3.2l3,4.6l5.7,6l5,3.9l4.3,1.8l6.7,4.9l9.1,7.8l4.5,5.9v3.9l0.9,4l1.9,4.1v3.9l-1.9,3.7l0.7,5l3.3,6.3
	l2.8,3.8l2.3,1.3l0.5,0l0.1-0.5l-0.3-0.9l-0.1-0.8l0.2-1.1l0.5-0.4l0.4-0.1l2.2,1.5l3.2,3.4l1.4,4.5l-0.3,5.7l-1.3,5.4l-2.1,5.1
	l-2.4,1.7l-1.1-0.3l-2.3-0.9l-0.9,0.3l-2.1,1.3l-2.4,4.9l-0.1,0.1l-0.9,0.5l-0.6-0.5l-0.1-0.3l-0.4-1.4l-1-1.5h-0.8l-0.6,0.1
	l-0.2,0.7l-0.2,1.5l0.1,0.7l0.8,4.2l-0.7,3l-2.2,1.2l-0.3,1.7l1.3,1.9v0.9l-0.5,0.7l-1.5,0.2l-1.2,0.4l-0.9,1.5l1.8,2.9l-0.4,3.5
	l-2.5,4.1l-0.3,1.6l-8.3,0.1l-7.5,0.1l-7.5,0.1l-7.5,0.1l3.6-6l2.3-2.1l1.7-2.3l3-2.1l3.3-4.5l0.4-2.1l-0.3-2.1l-2-2.8l-2-4.4h-12.7
	H2014h-12.6h-12.6H1976h-12.7h-12.6h-12.6h-12.6h-12.6h-12.6h-12.7h-12.6h-12.6h-12.6h-12.6v-7v-7.1v-7v-7.1v-7.4l0-7.4v-7.4v-7.4
	l0-7.4v-7.4l0-7.5v-7.5v-7.5l0-7.5v-7.5l0-7.6v-7.5v-7.6l0-7.6v-7.6l0.1-2.2l-7-4.1l-3.2-3.8l-1.6-4.9l-3.2-4.9l-4.8-4.8l-0.8-5.2
	l3.2-5.5l2.7-2.8l2.1-0.1l0.2-2.4l-1.7-4.7l-2.5-1.7l-3.2,1.2l-2.8-0.1l-10.5-7.6l-0.7-0.5l-3.2-5.1l-1.4-6l-2.6-4l-3.9-1.8l-2.5-4
	l-1.1-6.2l-2.5-6.2l-1.2-1.8l11.3,0l11.5-0.1l11.4-0.1l11.5-0.1l11.4-0.1l11.5,0l11.4-0.1l11.5-0.1l11.4-0.1l11.4-0.1l11.5,0
	l11.4-0.1l11.5-0.1l11.4-0.1l11.5,0l11.4-0.1l2.3,4.3l2.5,1.3l0.5,1.4l3.2,2.2l0.7,2.2L1981.2,1059.1z"/>
<path id="US-MS_00000161625245903368427210000018047244260415173001_" class="st0" d="M2129.6,1366.9l4,3.6l-0.1,1.3l0,0.9l-0.3,2.6
	l-1.1,10.2l-1.1,10.1l-1.1,10.1l-1.1,10.1l-1.1,10.1l-1.1,10l-1.1,10l-1.1,10l-1.1,10l-1.1,10l-1.1,9.9l-1.1,9.9l-1.1,9.9l-1.1,9.9
	l-1.1,9.8l-1.1,9.8l0.5,10l0.5,10l0.5,9.9l0.5,9.9l0.5,9.9l0.5,9.9l0.5,9.8l0.6,10.8l-13.3,0.8l-5.8-2.7l-2.4-0.5l-1.4,0l-6.8,2.5
	l-7.7,1.9l-1.8-0.6l-2.6-0.1l-5.6,6.4l-3.5,1.6l-1.1-0.4l-1.3-0.4l-0.9-0.7l-1.7-3.8l-0.5-2.8l-2-6l-2.3-3.3l-2.6-2.2l-1.2-2.2v-1.5
	l-0.8-2.7l0.1-2.1l3.2-8.2l1.4-6.1h-10.9h-10.9h-10.9H2015h-10.9h-10.9h-10.9l-10.9,0l0.2-1.4l1.9-1.9l0.7-2.4l-1.5-5.7l0.6-3.1
	l2.7-0.6l1.4-3v-5.5l1.1-3.7l2.1-1.9l2-4.5l1.9-7.1l3.9-5.9l5.9-4.6l2.9-4l0.2-3.1l0.6-1.4l1.2-0.8l2-2.1l2.6-2.9l0.4-2l-0.1-1.4
	l-0.2-1.5l-2.1-2.7l-3.1-2.3l-2-3.6l0.1-2.8l-0.7-2.4l-1.5-2.1l0.3-1.9l2.2-1.8l0.1-1.7l-2-1.6v-2.8l1.9-4.1l-0.1-2.8l-2.2-1.6
	l-0.2-2.7l-0.1-1.4l2.1-9.6l-0.5-1.3l-2.1-2.9l-0.2-3.5l1.3-4.3l-0.6-3.3l-1.7-1.2l-0.4-1.4l-0.5-2l1.9-1.8l0.1-1.7l-1.7-1.5
	l1.1-2.2l3.8-2.8l1.1-1.6l1.1-1.7l0.7-4l-0.5-2.4l-0.9-1.6l0.4-0.8l0.8-0.7l4.5-1.4l1.3-1l0.3-1.3l-1.4-3.1l1.4-3.3l4.2-3.5l2.2-3
	l0.2-2.7l2-1.9l3.8-1.2l2.3-4.9l0.9-8.6l1.1-3.7l1.9-0.5l1-1.2l0.3-2.5l2.4-2.6l4.3-2.6l1.7-2.6l-0.5-1.4v-1.7h11.6h12.1h12.1h12.1
	h12.1h12.1h12.1L2129.6,1366.9L2129.6,1366.9z M2112.1,1623.7l-0.6,0.6l-4-1.1l-2.5-1l-0.4-1l6.8,1.8L2112.1,1623.7z"/>
<path id="US-MT_00000006670301656756310570000000658573977285810581_" class="st0" d="M1410.3,713.6l0,15.1l0.1,15l0,15l0.1,14.9
	v0.2l0,0.2v0.2v0.2h-0.3h-0.4h-0.3h-0.4h-9.9h-9.9h-10h-9.9h-9.9h-10h-9.9h-9.9h-10h-9.9h-9.9h-10h-9.9h-9.9h-10h-9.9h-9.9h-10h-9.9
	h-9.9h-10h-9.9h-9.9h-9.9h-10h-9.9h-9.9h-10h-9.9h-9.9h-10h-9.9v8.1v8v8l0,8l-3-1.7l-2-1.9l-1.6-2.2l-3.1-6.2l-1.7-2.3l-1.5-1.4
	l-1.6-0.1l-1.9,0.8l-1.5,1.4l-0.5,2.6l-1.4,3l0.1,2.5l0.6,1.3l-0.2,0.7l-1,0.5l-7.2-0.9l-6.3,1.3l-4.3-1l-8.3,0.5l-7.1-0.9l-2.5,0.4
	l-1.6,1.4l-2,3.4l-0.5,0.6l-0.8,0.1l-11.6-1.8l-3.1,0l-3.2,2.2l-1,1.5l-0.2,2.1l-0.7,0.6l-1-0.1l-2.6-1.4l-2.7-2.2l-1.4-1.6
	l-0.3-3.7l-2.2-4.2l-0.4-3.8l-1.4-3.2l-2.1-3.2l-2.1-2.1l-2.1-0.7l-4,0.4l-0.8-0.3l-4.2-4.2l-1.3-1.8l-0.4-1.7l1.4-4.1l-0.4-2.3
	l-1.1-2.8l-1.5-2.3l-2.5-2l-2.2-4.4l-4.1-6.2l-1.1-4.8l-1.6-4l-0.4-4l-1.5-2.4l0.1-3.1l-0.2-0.9l-0.5-0.4l-2.8-1.7l-3.1-3.1
	l-1.6-0.7H957l-0.4,0.8l-0.2,1.4l-5,5.1l-4.2,2.4L945,742l-1.9,1.2l-1,0.1l-1.4-0.8l-4.4-3.5l-3.7-1.6l-0.4-0.8l0.2-2.9l1.7-3.4
	l-1.7-6.2l0.5-2.2l1.4-1.5l4-2.3l0.4-1.1l-0.9-5.9l-2.2-2.2l-0.6-1.3l0.7-4.8l-1-3.2l1.7-2.7l0.1-4.6l1.4-4.8l1.5-7.1l-0.3-3.1
	l1.9-3.3l0.6-3.4l0.1-2.4l-0.3-1.4l-0.7-0.5h-1.4l-6.2,1.3l-2-0.2l-1.8-0.6l-1-1.2l-0.3-2.7l-1.4-1.8l-0.7-0.3l-2.8,1.1l-0.6,0
	l-0.3-0.5l-1.2-2.3l-4.6-4.5l-2.2-5.2l-4.4-4.5l-4.2-6.2l-8.2-9.7l-2-2l-6.2-3.4l-4.9-4.9l-5-3.5l-0.5-0.6l0-0.4l0.3-0.3l1.4-1
	l0.3-1.8l-1.9-3.7l0.9-3.6l-1.3-5l-0.7-1.7l-3.5-4.7l-2.3-4.5l-3.6-4.1l-4.9-6.8V560v-16.8v-16.9v-17h8.4h19.3h19.4H930h19.3h4.4h15
	h19.3h19.3h19.4h19.3h19.4h19.3h19.3h19.4h14.6h4.7h19.4h19.3h19.3h19.4h19.3h19.3h19.4h19.3h19.3h19.4h19.3h19.4h19.3h14.4
	l0.1,13.1l0.1,13.1l0,13l0,13l0,12.9l0.1,12.9l0,12.8l0,12.8l0.1,12.8l0,12.7l0,12.6l0.1,12.6l0,12.5l0,12.5l0.1,12.4L1410.3,713.6z
	"/>
<path id="US-NC_00000093162885065750087610000002254161152344730286_" class="st0" d="M2684,1280.4l-1.2,4.4l0.6,2.5l2.4,2.6
	l2.7,6.5l2.1,8.7l-2.8-3.5l-3-1.9l-4.7-1.4l-4.2-2.5l0.3,3.6l-0.4,3.9l-3.2-1.2l-2.2-1.3l2,4.1l-4.2-1.3l-2.8,0.2l-1.8,3.7l-2.5,2.2
	l-3.7,0.7l-5.5-3.4l-1.7-4.1l-0.7-4.5l-0.3,5.4l1,5.6l-0.3,4.2l5.2,0.8l4.9-0.7l6.6,0.2l4.3-0.8l2.6-1.4l6.2,1.2l0.4,5.1l-0.7,5.1
	l-0.3,5.4l1.7,0l2-1.7l1-9.7l5.7-3.6l1.9,0.2l1.8,3.1l0.6,3.2l0.6,4.3l-1.4,6.6l-8.7,7.7l-6.2,7.1l-3.2,1.4l-4.6-0.8l-5.2-1.8
	l-2.6-0.3l-1.9,0.6l-1.2-2.2l-0.8-4l-2-1.4l-1.5,0.1l-1.1,4.2l-4.9,1.2l-6.6-1.7l-6.9-3.6l3,3.8l17.2,7.1l1.9,1.4l1.8,1.9l-2.4,3
	l-1.9,3.4l-0.3,2.7l-0.7,1.7l-6.9,4.6l-3.7-0.8l-9.5-8.3l4.3,7.1l3.5,3l7,1.6l13.1-2.7l4.3,2.9l-3.5,5.2l-3.5,3.6l-4.6,0.4l-4.1,1
	l-1.2,2.5l-2.9,0.1l-4.5,0.1l-7,0.2l-3.8-0.6l-5.4,5.1l-2,0.7l-2.8-1l-1.2-4.1l-1.3-2l0,7.6l0.5,2l1,1.5l-6.3,4.1l-6,5.2l-2.2,1.4
	l-2.5,2.6l-5,7.4l-1.3,5.4l-1.8,6l-0.2-2.7l0.3-4.6l-1.3-5.2l-0.8,9.6l-1.9,4.4l-17.9-0.3l-7.2,2.2l-6.6-6.6l-6.1-6.2l-6.1-6.2
	l-6.1-6.2l-6.1-6.3l-6.1-6.3l-6.1-6.3l-6.1-6.3l-6.4-0.2l-6.4-0.2l-6.4-0.2l-6.4-0.2l-6.4-0.2l-6.4-0.2l-6.4-0.2l-6.4-0.2l-0.2-4.3
	l-0.2-3.1l-4-5.3l-2.4-3.1l-5.1,2.7l-0.3-1.3l0.2-2.3l-0.4-0.8l-1.4-0.6l-7.2-0.3l-7.2-0.3l-7.2-0.3l-7.2-0.3l-7.2-0.3l-7.2-0.3
	l-7.2-0.3l-7.2-0.3l-1.6-0.5l-3.2,1.8l-8.5,2.8l-4.2,2.4l-1.5-0.1l-7.2,2.4l-7.2,2.4h-0.8l-13.8,0.2l-13.8,0.2l-13.8,0.2l-13.8,0.2
	l1.7-11.8l1.2-2.7l1.3-0.6l4.7,0l3-1.4l2.7-7.1l6-5.6l2.7-1.4l4.1-1.1l9.6-1.4l10.3-5.5l7.4-5.2l5.9-1.4l1.8-1.9l1.4-2.5l0.8-3.4
	l0.6-0.7l3.4,0.2l2.6-2.9l2.5-1.7l2.5-1l1.5,0l0.6,0.9l0.4,2.5l0.5,0.8l1.1,0l1.4-0.6l1.9-1.6l5-5l3.3-1.9l5.1-1.1l3.7,2.7l2.2-0.9
	l6.5-10.3l2.6-1.9l1.9-0.7l3.4-0.1l0-2.8l1.2-4.3l0.1-2.9l2.1-4.3l0.8,0.9l16.5,0.1l16.5,0.1l16.5,0.1l16.5,0.1l16.5,0.1l16.5,0.1
	l16.5,0.1l16.5,0.1l16.5,0.1l16.5,0.1l16.5,0.1l16.5,0.1l16.5,0.1l16.5,0.1l16.5,0.1L2684,1280.4L2684,1280.4z M2687.5,1280.4h1.4
	l4.5,18l9.1,19.6l1.1,3.4l-2.1-2.9l-6.7-12.9l-3.8-9.5L2687.5,1280.4L2687.5,1280.4z M2699,1319.3l-0.7,1.2l-3-6.2l3.1,2l0.5,1.6
	L2699,1319.3L2699,1319.3z M2703.2,1353.6l-6.1,1.5l-0.5-0.5l7-3.1l2.2-11.1l0.3-5.2l-1.1-9.1l0-1.9l1.2,2.9l1,8.5l-0.4,6.4l-2,9.3
	L2703.2,1353.6L2703.2,1353.6z M2692.4,1356.3l-8.3,4l-0.9-0.2l5.4-2.8L2692.4,1356.3z M2659.6,1386.5l-1.1,0.6l4.1-6.9l8.2-8.7
	l2.2-1.4l-6.9,7.4L2659.6,1386.5L2659.6,1386.5z M2657.7,1385.9l-1,0.1l-1.8-0.6l-2.5-1.2l-0.5-0.9l2.4,0.3L2657.7,1385.9
	L2657.7,1385.9z"/>
<path id="US-ND_00000012441203962859684950000002214942733398809231_" class="st0" d="M1748.8,713.6h-10.6h-10.6h-10.6h-10.6H1696
	h-10.6h-10.6h-10.6h-10.6H1643h-10.6h-10.6h-10.6h-10.6h-10.6h-10.6H1569h-10.6h-10.6h-10.6h-10.6h-10.6h-10.6h-10.6h-10.6h-10.6
	h-10.6h-10.6H1442h-10.6h-10.6h-10.6l0-12.4l-0.1-12.4l0-12.5l0-12.5L1410,651l0-12.6l0-12.7l-0.1-12.8l0-12.8l0-12.8l-0.1-12.9
	l0-12.9l0-13l0-13l-0.1-13.1l-0.1-13.1h4.9h19.4h19.3h19.3h19.4h19.3h19.4h19.3h19.3h19.4h19.3h19.4h19.3h19.3h19.4h19.3h13.8
	l4.4,21.5l0,6l-0.7,3.9l0.6,6.8l-0.2,4.5l0.7,5.8l-0.2,7.7l2.2,8.8l3.2,8l-0.1,2.3l1,4.8l1.9,4l4,11.7l-0.2,11l0.7,3.4l1,23.6
	l0.3,2.9l2.2,3.6l-1,5.4l-0.1,2.8l0.4,9.8l1.3,3.8l1.3,7.8l5.2,9.6l0.9,3.6l0.3,2.9l1.4,5.8l-0.4,7.8L1748.8,713.6z"/>
<path id="US-NE_00000182509753806185909530000014382873657219347380_" class="st0" d="M1752.3,930.5l1.4,0.3l3,5.4l1.3,9.6l2.8,7.8
	l4.3,5.9l2.1,4.3v2.8l1.1,2.9l2,3.1l0.8,5.3l-0.4,7.5l0.9,4l2.1,0.5l1,1l-0.3,1.6l0.7,1.2l1.7,0.8l0.5,2.1l-0.8,3.5l0.6,2.2l2,0.9
	l0.4,1.7l-1.3,2.5l0.2,2l1.6,1.4l1.1,6.5l0.5,11.4l-0.2,6.7l-0.9,2l1.5,4.1l2.8,4.4l1.2,1.8l2.5,6.2l1.1,6.2l2.5,4l3.9,1.8l2.6,4
	l1.4,6l3.2,5.1l0.7,0.5h-8.2h-9.5h-9.5h-9.5h-9.6h-9.5h-9.5h-9.6h-9.5h-9.5h-9.6h-9.5h-9.5h-9.6h-9.5h-9.5h-9.5h-9.6h-9.5h-9.5h-9.6
	h-9.5h-9.5h-9.6h-9.5h-9.5h-9.6h-9.5h-9.5h-9.5h-9.6h-9.5v-7.4v-7.4v-7.4v-7.4v-7.4v-7.4v-7.5l0-7.5h-11.3h-11.3h-11.3h-11.3h-11.3
	h-11.3h-11.3h-11.3l0-15.1l0-15.1l0-15.1v-15.2l0-15.2l0-15.3l0-15.3l0-15.4h15.7h15.7h15.7h15.7h15.7h15.7h15.7h15.7h15.7h15.7
	h15.7h15.7h15.7h15.7h15.7h18l13.6,9.2l8.1,2.8l3.9-2.7l8.3-1.5l12.8-0.4l8.1,1.3l3.4,2.9l6.6,3.3l9.8,3.6l5.8,4l1.9,4.2l3.4,2.7
	L1752.3,930.5z"/>
<path id="US-NH_00000066509668708421855210000014891795380780309408_" class="st0" d="M2921.7,896l-2,8l-1.3,4l-5.3-0.3l-2.3,0.6
	l-4.6,2.8l-2.8,1.1l-4.7,4.8l-4,1.7l-6.5-0.2l-6.5-0.2l-6.5-0.2l-6.5-0.2l-6.4-0.2l-6.5-0.2l-6.5-0.2l-6.5-0.2l-0.8-2.2l-2.5-4
	l-0.6-1.6l0.1-1.8l1.4-5l1-1.5l1.1-2.9l1.6-11.5l1.4-6.7l1-12.3l1-3.6l1.2-2.2l1.8-5.8l3.4-4.8l2.2-5.8l2.7-5.1l0.4-3l2-6.5
	l1.4-11.6l1.4-1.8l6.1-1.6l1.9-1.2l6.5-4.8l2-2l1.3-2l1-3.3l0.7-0.9l0.1-1.8l-2.3-7.7l-0.1-2.8l5-8.7l-1.1-5.1l0.7-1.3l4.4-12.4
	l4.2-5.7l5.7,1.9l3-0.2l2.3-2l0.3,6.4l0.3,7.1l0.4,7.1l0.3,7.1l0.3,7.1l0.3,7l0.3,7l0.4,7l0.3,7l0.3,7l0.3,7l0.3,7l0.4,6.9l0.3,6.9
	l0.3,6.9l0.3,6.9l-0.2,4.6l0.6,4.3l1.6,3.8l4.1,5.5l0.7,4.7L2921.7,896z"/>
<path id="US-NJ_00000038377221173444781710000001718906369760103595_" class="st0" d="M2777.4,1022.6l-0.8,4.7l-4.5,9.5l-1.9,2.2
	l-2.2,1.9l-1.7,0.8l-1.5,1.5l-1.8,2.4l-1.7,4.7l1,4.3l8.7,1.6l2.3-1.4l1.2,3.1l0.7,4.3l-0.7,4.6l-1.4,4.7l-1.1,5.8l-0.9,8.8l-1.4,8
	l-0.2-2.4l0.9-9.6l-1.4,1l-1,2.2l-2.7,12.4l-3.7,6.6l-3.4,4.6l-3.5-0.8l0.8,3.6l-1,1.9l-0.8,4l-2.1,2.6l-1.9-0.2l-2.8,1.8l-1.1,1.4
	l-0.1,2.6l-1.9,2.3l-6.8,12l-5.8,3.5l-1.4-0.5l1.5-5.6l1.1-5.7l-3.6-2.5l-3.4-1.3l-3.9,0.2l-4.3-4.4l-5.5-3.2l-7.8-8.8l0.2-2.5
	l-0.2-4.1l2.4-6.5l2.3-4.5l3.1-2.4l9.1-2.4l2.3-3.6l1.4-3l2.3-2l5.2-3.7l7.9-4.4l-11-14.9l-2.6-0.9l-2.9-7.3l-3.3-2l-0.8-1.2
	l-0.1-5.6l0.3-3.2l0.5-1.9l2.8-1.6l1.6-3.2l0-1.7l-2.2-5.2v-1.6l4.1-3.2l5.4-6.2l3.2-6.8l1.3-2l1.6-1.4l3.6-1.9l4.5,2.8l4.5,2.8
	l4.5,2.8l4.5,2.8l4.5,2.8l4.5,2.8l4.5,2.8L2777.4,1022.6L2777.4,1022.6z M2767.2,1100.4l-5.3,8.9l-0.1-1.7l6.7-11L2767.2,1100.4
	L2767.2,1100.4z"/>
<path id="US-NM_00000018196167427587036800000007076389419595743873_" class="st0" d="M1456.2,1283.2l-1.9,0l0,15.8l-0.1,15.7
	l0,15.7l-0.1,15.6l0,15.6l0,15.5l-0.1,15.5l0,15.4l0,15.3l-0.1,15.3l0,15.2l-0.1,15.2l0,15.1l0,15.1l-0.1,15.1l0,15H1443h-10.2
	h-10.2l-10.2,0h-10.2H1392h-10.2h-10.2h-10.2h-10.2h-10.2h-10.2l-10.2,0h-10.2h-10.2h-10.2h-0.2l4.6,9.6h0l5.5,2.8l-0.3-0.1l-10-0.1
	l-10,0l-10,0l-10,0l-10-0.1l-10,0l-10,0l-10,0v6l0,5.9v6l0,5.9l-16.1,0l-16,0h-5.7v-18.8v-18.9v-19v-19v-19.1v-19.2V1432v-19.3
	v-19.4v-19.5v-19.6v-19.7v-19.7V1295l0-19.9V1255h17.1h17.2h17.2h17.1h17.2h17.2h17.2h17.1h17.2h17.2h17.1h17.2h17.2h17.1h17.2h17.2
	v7.1v7v7L1456.2,1283.2z"/>
<path id="US-NV_00000113314321951398497280000001241963080447568026_" class="st0" d="M954.8,1254.8l0,22.1l-0.1,24.2l-0.9,0.3
	l-2.6,5.5l-2.9,2.6l-2.2,0l-2.2-1.6l-2.3-3.1l-3.4-1.8l-4.5-0.4l-4,0.5l-3.5,1.4l-2.1,2.1l-1.2,4l0.4,1.6l2.1,3.7l0.1,5.8l0.3,4.7
	l1.3,2.6l0.2,3l-0.8,4.7l0.6,3.9l2.6,6.8l-0.9,19.6v0.4l-12.4-11.7l-11.5-11l-11.5-11l-11.5-11l-11.5-11l-11.5-11.1l-11.5-11.1
	l-11.5-11.1l-8.3-7.8l-8.3-7.8l-8.3-7.8l-8.3-7.8l-8.3-7.8l-8.3-7.9l-8.3-7.9l-8.3-7.9l-10.6-9.4l-10.7-9.4l-10.6-9.4l-10.6-9.4
	l-10.7-9.5l-10.6-9.5l-10.7-9.5l-10.6-9.5v-11l0-11v-11v-11v-11v-11.1v-11.1v-11.1v-11.2v-11.2v-11.2v-11.2v-11.3v-11.3v-11.4v-11.4
	H701h16.9h16.9h16.9h17h16.9h16.9h16.9h16.9h16.9l16.9,0h16.9H904h16.9h16.9h16.9v9.5v9.5v9.5v9.4v9.4v9.4v9.4v9.3v9.3v9.3v9.3v9.3
	l0,9.2v9.2v9.2v9.1v9.2v9.1v9.1v9.1v9.1v9v9v9v9v9l0,8.9v8.9v8.9v8.9v8.9L954.8,1254.8z"/>
<path id="US-NY_00000006688299175037416610000010096471176244256698_" class="st0" d="M2807.2,915.6l-1.4,5.2l-1.4,5.2l-1.4,5.2
	l-1.4,5.2l-1.4,5.2l-1.4,5.2l-1.4,5.1l-1.4,5.1l1.2,1.5l-0.4,5.8l-0.4,5.8l-0.4,5.8l-0.4,5.7l-0.4,5.7l-0.4,5.7l-0.4,5.7l-0.4,5.7
	l1.4,2.3l1.4,2.3l-1.7,1.1l-2.7,1.7l-2.8,1.8l-3.7,2.3l1.8,3l2.4,3.8l-1.9,1.5l-4.9,5.2l-3.3,2.8l-2.7,0.9l-1.6,2.4l-1.8,1.5
	l1.7-5.2l1.9-4.4l1.6-8.5l-0.5-6.9l-2-2.8l-2-1.9l2.4,6.9l0.4,8.4l0,0.2l-4.3-2.7l-4.5-2.8l-4.5-2.8l-4.5-2.8l-4.5-2.8l-4.5-2.8
	l-4.5-2.8l-4.5-2.8l-1-2.3l-1.6-1.7l-8.1-3l-2.1-2l-1.9-2.8l-1.3-3.4l-0.7-3.5l0-2.8l0.6-3.1l-1.9-2.1l0-2l-1.2-1.3l-5.3-2.4
	l-1.6-3.3l-3.5-3.1h-6.3h-6.3h-6.3h-6.3h-6.3h-6.3h-6.3h-6.3h-6.3h-6.3h-6.3h-6.3h-6.3h-6.3h-6.3h-6.3h-6.3h-6.3h-6.3h-6.3h-6.3
	h-6.3h-6.3h-6.3h-6.3h-6.3h-6.3h-6.3h-6.3h-6.3h-6.3h-6.3v-8.2v-8.2v-0.3l2.7-1.5l8.7-5.5l4.3-4.1l4.6-3.4l4.8-2.7l3.8-3.4l2.8-4.2
	l3.1-3.1l3.4-2.1l1.8-2.2l0.2-2.3l-0.6-3.1l-1.5-3.9l-0.2-3l1.1-2.2l0.2-1.5l-0.6-0.8l-7.2-2.2l0.3-10.7l-0.1-0.3l0.4-0.1l16.5-4.7
	l10.5-1.6l12.8-0.4l15.3,2.3l5.9,2.1l3.8,2.7l4.3,0.7l4.9-1.3l6.8-0.4l8.7,0.4l4.7,0.6l0.6,0.9l0.6-0.2l0.6-1.4l2.3-1.5l6.5-2.3
	l0.9,0.5l1.4-1.2l1.8-2.8l3.3-3l4.9-3.3l4.4-1.7l3.9-0.1l2.6-0.8l1.3-1.5l0.4-1.4l-0.5-1.2l0.2-1.3l0.2-0.6l-0.2-0.5l-0.5-1.1
	l-0.4-5.5l-0.8-2.6l-1.1-1.9l-0.7-1.5l0.1-1.3l2.4-1.6l-0.2,1.5l0.6,0.4l1.1-0.7l2.5-3.3l0.3-1.3l1.7-1.3l1.3-2l-1.4-0.3l-3.3,0.6
	l-0.8-0.6l1.7-2.7l-0.3-1.5l-0.5-0.6l-1.1-0.2l-3.8,2.3l-1.2,0.2l-0.1-1.2l-1.9-2.8l5.2-4.9l18.4-13.6l1.9-2.1l0.7-1.8l-0.5-1.6
	l-0.5-0.4l0.3-0.4l17.8-17.5l10.1-8.1l8.3-4.5l6.3-2.2l4.3,0.3l2.4-0.3h2.1h10.6l18.9,0l18.9,0h11.2l0.3,4.2l-1,5l0.8,5.5l-1.1,11.3
	l2.8,8.7l-0.7,5.8l0.2,6.3l-0.5,1.5l-2.2,3.6l-1.3,3.5l-0.7,3.6l0,2.3l1.9,10.2l0.4,4.5l0,2.6l-1.7,8.4l-0.1,2.4l0.5,0.7h0.6
	l1.9-2.6l0.9-0.4l1.1,0.6l2.7,4l-0.1,7.1l-0.1,5.1l-0.1,5.7l-0.2,8.5l-0.1,6.2l-0.1,5.7l-0.1,4.3l-0.6,3.2L2807.2,915.6
	L2807.2,915.6z M2677.4,820.5l-1.4,0.5l-0.3-0.7l0.2-0.7l1.2-0.9h2l-0.2,0.7L2677.4,820.5L2677.4,820.5z M2670.6,838.6l-0.7,0.2
	l0-1.4l0.7-0.9l1.4-0.4l0,0.7L2670.6,838.6L2670.6,838.6z M2549.4,898.9l-1.4,2.1l-1.4-0.2l-1-0.7l-0.3-1.4l0.2-1.7l1.2-0.7l3.2,0.6
	l0.1,0.7L2549.4,898.9L2549.4,898.9z M2841,1023l-3.2,3.9l2.9,0.4l2.5-1.2l2.4-2.3l5.5-3.1l4.7-1.4l1.5-0.3l2.2,2.2l4.4-1.7l4.6-1
	l-19.8,10l-4.1,1.1l-5.8,2.9l-5.5,2.1l-4,0.8l-19.6,7.4l-1.5,0.1l-1.7-0.7l-16.2,3.8l-6.6,0.4l-6,1.3l4.4-3l0.1-1.2l-1.1-0.9
	l-2.4,0.2l-2.5,3.1l-3.9,1.1l-0.8-3.4l1.3-2.7l1.8-2.5l3.9-4l5.5-2.5l2.8-2.2l1.9,1.9l0.4-2.6l1.5-1.5l1.6-0.8h3.9l2.1-0.4l1.5-0.9
	l1.6-0.1l4.3,1.2l4.2-0.3l3.4-1.6l3.5-0.5l9.3-0.4l9.3-1.2l3.7-2.1l7.8-5.9l4.5-1.6l-6.9,6.9L2841,1023L2841,1023z M2764.8,1050.6
	l-2.2,0.2l2.2-5.7l4-2.6l1.4,0.5l0,2l-0.6,1.7l-2.7,2.7L2764.8,1050.6L2764.8,1050.6z"/>
<path id="US-OH_00000076597966776972978630000007167041317227537060_" class="st0" d="M2477.2,1043.2l-5.4,2.6l-1,2.4l1.6,3l0.9,4
	l0.1,4.8l-3,10.6l-6.2,16.3l-3.1,10.2l-0.1,4.2l-4.1,5.5l-8,6.8l-5.6,4.1l-3.2,1.4l-2.7-0.1l-2.1-1.6l-2.4,1.1l-2.7,3.9l-2.5,2
	l-2.3,0.1l-2,2.5l-1.6,4.8l-1.5,2.8l-1.4,0.7l-0.1,2.5l1.2,4.1l-0.1,1.5l-0.7,0l-0.6-0.2l-1.6,0.9l-1.7,2.3l-0.7,0l-0.5-0.4l-0.5-3
	l-1.4-2.1l-2.3-1.3l-3.2,2.8l-4.1,6.9l-1.8,4.4l0.7,3.1l0.4,4.5l-1.1,1.8l-2.2,0.7l-1.8,2.5l-1.2,4.1l-3.1,2.7l-5,1.1l-5.3-1.9
	l-0.4-0.1l-6.2-5.2l-3.9-5l-1.6-4.8l-5.4-0.2l-9.3,4.4l-6.9,0.6l-4.7-3l-3.5-1.2l-3.5,1l-3.4,1.9l-2.8-1.2l-3.5-3.6l-5.5-2.5
	l-7.5-1.4l-5.2-3.9l-2.8-6.3l-3.1-4.4l-3.2-2.4l-3.6-0.7l-3.9,1l-3-0.5l-2.1-2l-2.7,0.2l-2.5,1.9l0-19.4l0.2-19.1l0.1-19.2l0.1-19.3
	l0.1-19.4l0.1-19.4l0.2-19.6l0.1-19.7l15.1-0.6l15.1-0.5l15.1-0.6l15.1-0.5l0.4-0.4l-0.1,0.2l0.6,1.1l4.1,0.7l2.8,1.3l2.2,1.9
	l7.9,3.7l2.4,2.3l2.4,1.3l2.4,0.2l1.6-0.7l0.9-1.6l1.1-0.1l1.4,1.4l4.4,1.6l0.1,0.5l-12.3,2.8l-2.6,1.3l3.1,0.9l3.1-0.2l3.1-1.3
	l3.6,0l3.1,0.6l1-0.5l0.4-0.3l5.4,3.6l2,0.6l2.1-0.4l2.2-1.4l4.7-1.8l7.3-2.2l7-0.9l6.8,0.4l4.3-0.6l3.9-2.3l8.6-7.4l9.9-6l16.4-7.5
	l15.8-5.8v5.1v6.4v6.4v6.3v6.4v6.3v6.3v6.3v6.3v6.3v6.3v6.2L2477.2,1043.2z"/>
<path id="US-OK_00000137089793188026642640000007642804592148978077_" class="st0" d="M1836.9,1283.2l1,7.9l1,7.8l1,7.8l1,7.8l1,7.8
	l1,7.8l1,7.7l1,7.8l-0.1,6l-0.1,6l-0.1,6l-0.1,6l-0.1,6l-0.1,6l-0.1,6l-0.1,6l-0.1,5.9l-0.1,6l-0.1,5.9l-0.1,5.9l-0.1,5.9l-0.1,5.9
	l-0.1,5.9l-0.1,5.9l-10.2-2.8l-2.6-1.7l-4.7-2l-4.2-4.1l-8.3-5.1l-3.2-1.2l-1,0.1l-1.7,2.5l-4.5,2l-2.4,0l-4.3-0.7l-0.9-0.6
	l-0.6-1.5l-1.7-1l-1.3,0.8l-6.4,2.1l-0.9,1.5l-3.6,0l-3.6-1.1l-9,3.3l-3.1,2.6l-3.2,0.9l-1.6,2.6l-1-0.4l-3.4-3.1l-3.4-0.9l-4.8-3.1
	l-0.1-2.8l-0.5-0.3l-0.8-0.3l-1.1,0.2l-2.1,2.4l-1.2,0.6l-1.2-0.1l-4.6-1.5l-1.9-2.8l-0.9-0.9l-1.1-0.2l-2,0.9l-1.1,3l-0.9,0.9
	l-1.9,0.5l0.1,1.5l-1.7,4.2l-0.9,0.9l-1.2-0.1l-1.2-1.1l-0.9-1.5l-0.4-1.3l0.7-3.3l-0.4-1.2l-0.9-0.3l-2.2,1.6l-2-0.1l-2.6,1.6
	l-1.5,0.5l-1.4-0.4l-2.4-2.6l-4.1-1.6l-1.6-3l-0.7-0.9l-0.9-0.2l-0.9,0.1l-1.4,1l-4.7,4l-2.1,1.3l-1.8,0.2l-1.8-0.4l-1.1-1l-0.2-4.1
	l-1.1-1.2l-4.3-2.6l-0.9-2.4l-0.4-3.3l-5.3,0.5l-6.5-0.3l-2.9,2.9l-1.5,0.5l-1.8-0.6l-5.2-4l-5.5,0.8l-3.1-0.4l-7.7-2.9l-6-0.3
	l-2.5-0.5l-1.4-0.7l-0.6-4.5l-2.4-3.8l-0.8-1.1l-4.1-2.7l-0.7-0.1l-0.4,0.6l-0.9,3l-1.3,0.1l-4.7-0.9l-4.3,0.9l-2.4-1.5l-8.3-7
	l-3.3-1.8l-2.7-0.6v-6.6v-6.6v-6.6v-6.6l0-6.6v-6.6v-6.7v-6.7v-6.6v-6.7l0-6.7v-6.7v-6.7v-6.7v-6.7l0-6.8h-8.5h-8.5h-8.5h-8.5h-8.5
	h-8.5h-8.5h-8.5h-8.5h-8.5h-8.5h-8.5h-8.5h-8.5h-8.5h-8.5v-7v-7v-7v-7.1h11.2h11.2h11.2h11.2h10.5h10.5h10.5h10.5h10.5h10.5h10.5
	h10.5h10.5h10.5h10.5h10.5h10.5h10.5h10.5h10.5h10.5h10.5h10.5h10.5h10.5h10.5h10.5h10.5h10.5h10.5h10.5h10.5h10.5h10.5h10.5h10.5
	v7.1v7v7.1L1836.9,1283.2z"/>
<path id="US-OR_00000008837576139363003200000004336631648368690877_" class="st0" d="M537.8,699.8l4.5-1.6l3.6,1.3l4.5,2.9l4.5,8.9
	l4.4,14.8l1,4.9l3.4,3l4.1,0.1l16.3,2.2l2.4-0.1l0,0l2.9-0.6l9.2-5.6l10-1.8l11.8,0.4l7.2,1.6l2.7,2.8l6.3,0.3l15-3.3l16.5-2.3
	l8.9-2.4l10.1-4.9l22.9-6.3l11.4-0.7l5.8-2.4l1.4-1.2l0.8,0h12.1h12l12.1,0h12.1h12.1l12.1,0h12.1h11.2l1.3,2.8l4.7,5.6l6.7,4.8
	l4.4,5l2,5.2l-3.3,11.9l-8.5,18.5l-4.6,11.8l-0.8,5.1l-4.2,8.6l-7.7,12.2l-3.8,9l0.2,5.8l2.6,3.4l5,0.9l3.5,1.9l1.8,2.8l0,2.7
	l-1.7,2.4l-0.5,2.5l0.7,2.6l-0.6,4.6l-2.9,9.5l0,0.3v15.3l0,13.9v13.9v13.8l0,13.8v13.7l0,13.7v13.6h-16.9h-16.9h-16.9h-17h-16.9
	h-16.9H701h-16.9h-12h-12h-12h-12h-12h-12h-12h-12h-12h-12h-12h-12h-12h-12h-12l-12.4,0l-5.7-7.4l-2.5-11.1l-0.5-4.7L484,926
	l-1.7-5.3l-4.3-8.8l1.9-7.7l2-4.7l4.9-20.4l1.2-1.6l2.1,0l3.6-3.5l-1.6-0.8l-2.5,1.6l2.2-8.1l2.5-7l1.6-2.5l0.8-22.9l1.4-17.5
	l2.4-5.8l-0.8-6l0.9-8.2l-0.7-8.3l5.1-39.9l-0.7-4.9l1.5-6.5l-1.4-17.2l0.6-19.4l-1.3-2.5l-0.7-2.7l1.2-0.4l2.3,2.8l10.8,0l6.9-2.6
	l2.5,0.9l2.9,3.5l3.7,0.7L537.8,699.8z"/>
<path id="US-PA_00000091721321473041074630000005555532402782158999_" class="st0" d="M2741.6,1000.6l-3.6,2l-1.6,1.4l-1.3,2
	l-3.2,6.9l-5.4,6.2l-4.1,3.2v1.6l2.2,5.2l0,1.7l-1.6,3.2l-2.8,1.6l-0.5,1.9l-0.3,3.2l0.1,5.6l0.8,1.2l3.3,2l2.8,7.3l2.7,0.9l11,14.9
	l-7.9,4.4l-5.2,3.7l-2.3,2l-4.5,5.3l-6.7,1.7l-3.7,2l-0.9,0.9l-4.1-1.6l-5.6,0.2l-1.9,0.7l-1.4,1.4l-3.4,4.7h-10.5h-10.5h-10.5
	h-10.5h-10.5h-10.5h-10.5h-10.5h-10.5h-10.5H2577h-10.5H2556h-10.5l-10.5,0h-10.5l-5.9,0h-5.9h-5.9h-5.9h-5.9h-5.9h-5.9h-5.9v-6.8
	v-6.9l0-6.8v-6.9v-6.9v-6.9v-6.9l0-6.9l0-6.3v-6.2v-6.3v-6.3v-6.3v-6.3v-6.3v-6.3v-6.4v-6.3v-6.4v-6.4v-5.1l8.4-3.1l3.8-2.1l3.8-2
	l2-1.2l2.2-1.1l14.2-7.9v0.3v8.2v8.2h6.3l6.2,0h6.3h6.3h6.3h6.3h6.2h6.3h6.3h6.3h6.3l6.2,0h6.3h6.3h6.3h6.2h6.3h6.3h6.3h6.2h6.3
	l6.3,0h6.3h6.3h6.2h6.3h6.3h6.3h6.2h6.3h6.3l6.3,0l3.5,3.1l1.6,3.3l5.3,2.4l1.2,1.4v1.9l1.9,2.1l-0.6,3.2v2.8l0.7,3.5l1.3,3.4
	l1.9,2.7l2.1,2l8.2,3l1.6,1.8L2741.6,1000.6z"/>
<path id="US-RI_00000037655364542094650820000002522576609735984016_" class="st0" d="M2899,979.5l-1.7,1.5l-1.8-2.4l-0.9-2.6
	l-1.3-1.4l-1.4-0.5l1.2,5.6l-2.8,4.2l-0.8,10.9l-3.6,4.5l-11.2,2.9l-3.3-0.3l0.6-3.5l1.2-1.4l0.2-3.8l0.1-2.5l0-4.1l0-4.8l0-5.2
	l0-4.6l0-3.3l0-4.6v-3.3l3.4,0l4.7,0l4.5-0.1l2.8,0l3.4,0l0.1,2.8l0.2,4.2l1.9,0.7l-0.1,3.4l0,2.3l1.6,1.4l1.7,1.4L2899,979.5
	L2899,979.5z M2898.6,992.5l-2.3,1.6l-2.5-0.3l1.3-2.2l0.5-3.3l1.3-3.6l0.7-1.1l1.5-1L2898.6,992.5z M2893,992.9l-1.3,1.1l-0.5-2.9
	l0.9-3.4l0.9-0.1l0.4,1.8L2893,992.9L2893,992.9z"/>
<path id="US-SC_00000039848644292225990860000012375702298413125015_" class="st0" d="M2566,1428.4l-0.6,0.2l-12,8.1l-3.6,3.6
	l-9.9,13.7l-2.5,8.7l-2-3.7l0.5-2.8l0-2.3l-2.5,4.8l2.4,7l-2.1,2.7l-6.5,5l-3.6,0.8l-4.1,1.4l-1.3,5l-5.5,4.5l-3.2,2l-5.8-1.3
	l1.8,4.4l-2.1,3.3l-3.7,2.6l-4.6,1.6l-2.6-0.2l-2.2,0.9l-1.8,2.1l-4.3,2l-4.4-1.1l-5.1-0.7l-2.8,1.2l4.7,2l2.5,2.8l-0.5,3.8
	l-1.3,1.4l-3,2l-1.3-0.3l-0.8-1.8l-1-3.7l-1.4,0.8l-0.2,1.7l-1.2,0.6l-4.2-5.9l0.2,4.5l1.4,3.5l1.4,1.8l1.4,1l0.3,1.6l-2.9,3.9
	l-1.5,0.9l-2.7,0.6l-1.5,2.4l0.5,2.1l-9.2-4.3l-2.8-3.9l0.1-5l-1.7-5.6l-5.4-9.5l-3.9-2.7l-2.6-6.5l-2.6-11.2l-4-7.1l-5.5-3.1
	l-3.7-3.7l-1.9-4.2l-1.9-2.8l-2-1.3l-1.1-2.2l-0.1-3.1l-3.1-4.1l-9.2-7.6l-2.2-4.6l-4.3-4.8l-10.8-9.8l0,0l-10.4-19.1h0l-1.3-3.9
	l-2.2-1.6l-3.6-0.6l-3.5-1.9l-5.1-4.8l0,0l-8.6-6l1.8-5.4l6.6-7l2.2-3.7l0.3,0h0.8l7.2-2.4l7.2-2.3l1.5,0.1l4.2-2.4l8.5-2.8l3.3-1.8
	l1.6,0.5l7.2,0.3l7.2,0.3l7.2,0.3l7.2,0.3l7.2,0.3l7.2,0.3l7.2,0.3l7.2,0.3l1.4,0.6l0.4,0.8l-0.2,2.3l0.3,1.3l5.1-2.7l2.4,3l4,5.3
	l0.2,3.1l0.2,4.3l6.4,0.2l6.4,0.2l6.4,0.2l6.4,0.2l6.4,0.2l6.4,0.2l6.4,0.2l6.4,0.2l6.1,6.3l6.1,6.3l6.1,6.3l6.1,6.2l6.1,6.3
	l6.2,6.2l6.1,6.2L2566,1428.4z"/>
<path id="US-SD_00000084494187923015996230000004120188139938202800_" class="st0" d="M1748.8,713.6l-1.5,6.5l-1.1,2.8l-2.2,2.8
	l-6.9,6.3l-1.7,2.2l0.2,1.9l1.4,2.5l3.5,5.8l1.9,2.4l7.5,3.9l3.5,4.8v14.4v14.4v14.3v14.3v14.2v14.1v14.1v14l-6.6,0.2l0.8,3.9
	l1.8,3.8l0.3,2.2l-0.4,1.8l-1.2,1.6l0.3,2.5l0.3,0.7l3,1.6l1,2.2l0.3,2.5l0,1.9l-1.8,3.5l-0.5,4.6l-2.2,6.8l-2.5,4.1l-0.5,2.1
	l0.2,1.7l3.8,4.4l0.2,1.7l1.2,2.3l1.2,5.1l-3.5-0.9l-3.4-2.7l-1.9-4.2l-5.8-4l-9.8-3.6l-6.6-3.3l-3.4-2.9l-8.1-1.3l-12.8,0.4
	l-8.3,1.5l-3.9,2.7l-8.1-2.8l-13.6-9.2h-18h-15.7h-15.7h-15.7h-15.7h-15.7h-15.7h-15.7h-15.7h-15.7h-15.7h-15.7h-15.7h-15.7h-15.7
	h-15.7l0-15.5l0-15.5l0-15.6l0-15.7l0-15.7l0-15.8l0-15.9l0-16h0.4h0.3h0.4h0.3v-0.2V774l0-0.2v-0.2l-0.1-14.9l0-15l-0.1-15l0-15.1
	h10.6h10.6h10.6h10.6h10.6h10.6h10.6h10.6h10.6h10.6h10.6h10.6h10.6h10.6h10.6h10.6h10.6h10.6h10.6h10.6h10.6h10.6h10.6h10.6h10.6
	h10.6h10.6h10.6h10.6h10.6h10.6L1748.8,713.6z"/>
<path id="US-TN_00000082368637240965681830000000435177202816045204_" class="st0" d="M2334.2,1277.4l10.3,0l22,0.1l15.6,0.1l12.8,0
	l7.6,0l9.6,0l2.1-1.2l4.8,0.2l6.4,0.2l-2.1,4.3l-0.1,2.9l-1.2,4.3l0,2.8l-3.3,0.1l-2,0.7l-2.6,1.9l-6.5,10.3l-2.3,0.9l-3.7-2.7
	l-5.1,1.1l-3.3,1.9l-5,5l-1.9,1.6l-1.5,0.6l-1.1,0l-0.5-0.8l-0.4-2.5l-0.6-0.9h-1.5l-2.5,1l-2.5,1.7l-2.6,2.9l-3.4-0.2l-0.6,0.7
	l-0.8,3.4l-1.4,2.5l-1.8,1.9l-5.9,1.4l-7.4,5.2l-10.3,5.5l-9.6,1.4l-4,1.1l-2.7,1.4l-6,5.6l-2.7,7.1l-3,1.4l-4.7,0l-1.3,0.6
	l-1.2,2.7l-1.7,11.7l-14.8-0.1l-14.8-0.2l-14.7-0.2l-14.8-0.1l-7.3-0.1l-7.3-0.1l-7.3-0.1l-7.3,0l-7.3-0.1l-7.3-0.1l-7.3,0l-7.3-0.1
	l-7.3-0.1l-7.3-0.1l-7.3,0l-7.3-0.1l-7.3-0.1l-7.3,0l-7.3-0.1l-7.3-0.1l-0.6,0l0.5,0.7l0.8,0.7h-12.4l-12.1,0h-12.1h-12.1l-12.1,0
	h-12.1h-12.1l-11.6,0v-0.1l1.7-2.3l5.2-3.8l2.3-5l-0.7-6.1l1.9-5.5l4.5-5l1.8-4.9l-0.8-4.9l2.2-4l5.3-3.1l0.7-1.3l-0.2-0.9l-0.1-1.1
	l0-0.4l0.2-1l1.2-0.5l1.5-0.5l0.7-0.8v-1.3l-0.9-2.2l0.2-1l0.3-1.6l2.5-4.1l0.4-3.5l-1.8-2.9l0.9-1.5l1.2-0.4l1.5-0.2l0.5-0.7v-0.9
	l-1.3-1.9l0.3-1.7l2.2-1.2l0.7-3l-0.8-4.2l3.2-0.1l0.1,0.3l0.6,0.5l0.9-0.5l0.1-0.1h9h7.8h7.9l7.8,0h7.9h7.8h7.9h7.1l0.1-0.1v-5
	l-1.8-5.8h0.2l6.1,0.6l4,0.4l1.3,1.7l15.1-0.3l15.1-0.3l15.1-0.3l15.1-0.3l15.8,0.5l15.7,0.6l15.8,0.5l15.8,0.6l15.8,0.5l15.8,0.5
	l15.7,0.6l15.8,0.5l0.4-0.1l0.3-0.1l0.3-0.1l0.4-0.1l0.3-0.1l0.4-0.1l0.3-0.1L2334.2,1277.4z"/>
<path id="US-TX_00000080901853570136292490000007204784949669277323_" class="st0" d="M1843,1440.8l2.4,2.7l1.9,0.8l0.6,1.1l0.9,0.3
	l1.2-0.2l1.7-1.2l2.6,0.3l2.1-0.4l4.2,0.6l2.3,1.3l0,7.3l0,7.3l0,7.3l0,7.3v6.8v6.8v6.8v6.8v6.8v6.8v6.8v6.8l6.3,6.5l2.7,4.5
	l0.9,2.3l0.3,7.8l0.6,1.9l3.1,2.9l0,1.9l3.3,5.6l-0.1,2.6l3.1,6l1.8,1.5l0.3,4l1,3l-1.4,2.2l0.6,3l-0.9,2.8l-0.5,3.7l-2.1,5.7
	l-1.8,2.8l-2.5,5.4l0.2,4.4l-1.4,4.9l-0.2,1.9l1.4,3.2l0.5,8.9l-0.7,1.9l-3,5.2l-2.2-0.1l-4.8,8.6l2.7,4.8l-0.2,1.7l-9.5,1
	l-21.6,9.6l-8.4,5.2l0.4-1.7l10.2-6.8l-3.6-1l-5.8,1.7l-2.1-0.6l2.5-5.6l-0.8-4.9l-4.1-0.1l-2.6,4l-1.8-0.2l-2.4-1.7l-1.8,0.5
	l1.4,8.9l2.6,3.7l2.2,4.7l-5.9,5.7l-5.5,4.7l-0.6,4.6l-5.5,6l-5.2,3.4l-12.2,7.9l-3.5,1.7l-5.5,3.7l-7.6,2.8l-7.3,4.4l-2.5,0.7
	l4.6-3.7l5.5-3.7l-4.7,0.5l-7.3-1.7l-4.4-0.1l0,1.4l-3.4,1.9l-3.5-2.8l-1.5-1.9l-0.7-1.6l-1.5-0.4l-1.4,0.8l5.3,11.3l2.2,0.5
	l2.5,1.1l-3.1,2.7l-3.3,2l-5.2,1.4l-4.4-4.1l-1,5.2l-0.6,5.2l-1.5,1.3l-2.4,1.9l-1.3-1.4l-0.6-2l-1.5,1.8l-2.2,1.4l-3.7,0.2
	l-2.8,0.7l0,2.1l0.8,2.1l4.9-1.7l-1.8,5.5l-4.5,5.5l-3.6,1.3l-5.5-0.8l-1.4,0.5l-1.2,1.1l6.5,8.5l-4.1,12.8l-2.7,4.6l-1.8,0.6
	l-2,0.1l-7.2-4.1l-3.9-3.2l3.5,8.7l9.4,2.5l0.5,3.3l0,2.8l-1.8,3.3l-1.7,4.3l1.3,3l1.5,7.5l1.3,3.4l1.4,10.4l1.5,4.5l8.5,16.5
	l2.9,0.1l0.5,1.8l-0.3,3.4l-6.2,1l-2.6,1.5l-0.5,1.3l-0.4,0.7l-0.8,0l-2.9-1l-6.7-4.7l-9.7-2.9l-12.8-1.1l-8.7-2.4l-4.7-3.6
	l-4.9-2.1l-5.1-0.7l-4.2-1.9l-3.3-3.2l-4.9-2.1l-6.5-0.9l-4.2-2.4l-2.9-5.9v-0.1l-2.6-9.9l-3.3-6.2l-6.4-7.7l-0.6-1l0,0l0-1.3
	l0.8-4.5l-0.7-3.2l-2-2.7l-0.5-2.8l1.1-2.9l0.1-3.5l-1-4.1l-4.1-4.4l-7.2-4.8l-6.1-7l-5.1-9.3l-5-6.4l-5-3.6l-3.4-4.3l-1.8-5.2
	l-0.5-3l0.7-0.8l-3-5.7l-6.9-10.7l-4-7.8l-1-5l-4.3-5.9l-7.7-6.9l-4.2-4.4l-1-3.1l0,0l-12-9l-3.5-5.6l-2.8-1.8l-3.1,0.2l-1.6-0.5
	l-0.1-1.3l-1,0l-1.9,1.2l-6.4,0.2l-10.9-0.7l-7.8-1.5l-4.8-2.4l-3.4,0.3l-1.9,3l-4.1,2l-6.3,0.9l-5.4,5.6l-4.5,10.4l-2,6.7l0.6,3
	l-1.2,2.2l-2.9,1.4l-3,3l-3,4.7l-3.6,2.3l-4.1-0.1l-7.5-3.6l-11-7l-8.6-4.3l-6.2-1.6l-5.5-3.3l-4.8-4.9l-4.4-3.2l-4-1.6l-4.7-5.4
	l-5.4-9.2l-2.7-7.1v-7.5l-7-16.4l-3.7-7.1l-2.8-3.3l-5.4-3.9l-8.1-4.6l-10.8-9.1l-13.6-13.8l-9.6-8.3l-5.6-2.8l-4.9-5l-4.1-7.1
	l-4.1-4.5l-0.4-0.2l-5.5-2.7l0,0l-4.6-9.6h0.3h10.2h10.2h10.2h10.2h10.2h10.2h10.2h10.2h10.2h10.2h10.2h10.2h10.2h10.2h10.2h10.2
	l0-15l0-15.1l0-15.1l0-15.1l0-15.2l0-15.2l0-15.3l0-15.3l0-15.4l0-15.4l0-15.5l0-15.6l0-15.6l0-15.7l0-15.7l0-15.8l1.9,0h8.5h8.5
	h8.5h8.5h8.5h8.5h8.5h8.5h8.5h8.5h8.5h8.5h8.5h8.5h8.5h8.5v6.7v6.7v6.7v6.7v6.7v6.7v6.7v6.7v6.7v6.7v6.6v6.6v6.6v6.6v6.6v6.6
	l2.7,0.6l3.3,1.8l8.3,7l2.4,1.5l4.3-0.9l4.7,0.9l1.3-0.1l0.9-3l0.4-0.6l0.7,0.1l4.1,2.7l0.8,1.1l2.4,3.8l0.6,4.5l1.3,0.7l2.5,0.5
	l6.1,0.3l7.7,2.9l3.1,0.4l5.5-0.8l5.2,4l1.8,0.6l1.5-0.5l2.9-2.9l6.4,0.3l5.3-0.5l0.4,3.3l0.9,2.4l4.3,2.6l1.1,1.2l0.2,4.1l1.1,1
	l1.7,0.4l1.8-0.2l2.1-1.3l4.7-4l1.4-1l0.9-0.1l0.9,0.2l0.7,0.9l1.6,3l4.1,1.6l2.3,2.6l1.4,0.4l1.6-0.5l2.5-1.6l2,0.1l2.3-1.6
	l0.9,0.3l0.4,1.1l-0.7,3.4l0.4,1.3l0.9,1.5l1.3,1.1l1.2,0.1l0.9-0.9l1.7-4.2l-0.1-1.5l1.9-0.5l0.9-0.8l1.1-3.1l2-0.8l1.1,0.1l1,0.9
	l1.9,2.8l4.6,1.6l1.2,0.1l1.2-0.6l2.1-2.3l1.1-0.3l0.9,0.3l0.5,0.3l0.2,2.8l4.7,3.1l3.5,0.9l3.4,3.1l1,0.3l1.6-2.5l3.2-0.9l3.1-2.6
	l9-3.3l3.6,1.1l3.6,0l1-1.4l6.4-2.1l1.3-0.8l1.8,1.1l0.6,1.5l0.8,0.6l4.4,0.8l2.4-0.1l4.4-2l1.7-2.5l1-0.1l3.2,1.2l8.3,5.1l4.2,4.1
	l4.7,2l2.6,1.7L1843,1440.8L1843,1440.8z M1817.7,1679.4l-2.3,0.5l9.9-8l2.1-2.7l2.7,0.1l-4.4,4.5L1817.7,1679.4z M1739.4,1730.5
	l-1.7,0.2l2.1-2.8l3.4-1.4l7.4-5.3l3-0.4l1.6-1.8l0.7-0.3l-0.4,2.3l-5.9,3.2L1739.4,1730.5L1739.4,1730.5z M1728,1743.3l-1,0.1
	l2.2-4.2l0.4-1.7l3.6-5.3l1.9-0.8l0.8,2.3l-3.7,3.7L1728,1743.3L1728,1743.3z M1712.7,1774l-1.4,2.9l0.4-4.3l3.7-9.9l7.5-13.1
	l3.1-2.2l-8.6,14.3L1712.7,1774L1712.7,1774z M1721,1831.7l-0.6,2.3l-3.8-10.9l-6.1-24.8l-0.2-14.2l1-4.9l1.6,20l6.8,25.3
	L1721,1831.7L1721,1831.7z"/>
<path id="US-UT_00000164482027978579399230000012542698455622734730_" class="st0" d="M1090.6,961.6l0,7.6v7.6v7.6v7.6v7.5v7.5v7.5
	v7.5h11.3h11.4h11.4h11.4h11.4h11.3h11.4h11.4v15v14.9v14.9v14.8v14.7v14.7v14.6v14.6v14.5v14.5v14.4v14.4v14.3v14.3v14.2v14.1
	h-14.2h-14.2H1139l-14.2,0h-14.1h-14.2h-14.2h-14.2l-14.2,0h-14.1h-14.2h-14.2l-14.2,0h-14.2H969h-14.2v-8.9v-8.9v-8.9v-8.9v-8.9
	l0-8.9v-9v-9v-9v-9v-9v-9.1v-9.1v-9.1v-9.1v-9.2v-9.1v-9.2v-9.2l0-9.2v-9.3v-9.3v-9.3v-9.3v-9.3v-9.4v-9.4v-9.4V990v-9.5v-9.5v-9.5
	h8.5h8.5h8.5h8.5h8.5h8.5h8.5h8.5h8.5h8.5h8.5h8.5h8.5h8.5h8.5L1090.6,961.6z"/>
<path id="US-VA_00000158019879154049658300000006361966259700443290_" class="st0" d="M2604.1,1120l2.6,2.2l6.1,2.6l2.5,2.6
	l-1.1,2.7l-0.1,1.9l1.2,1.7l8.2,3.5l5,4.9l3.1,1.5l0.9,0.4l2.2,1.2l1,1.5l-0.7,6.6l-2.1,3.3l-3.3,2.5l-4.3,4.4l-1.1,4.1l-1.4,7.7
	l1.8,2.6l1.9,0.7l5.5-1.7l2.8,0.8l6.4,9.2l11.9,3.6l4.3,2.3l3.5,4.8l5.3,2.8l4.1,4l0.1,2.6l-1.4,3.1l-0.6,4.1l-1.7,2.6l-4.2,0.3
	l-2.6-0.7l-13.7-14.7l-1.6-1.4l-5.1-7.7l-5.9-4.1l-1.8,0.1l8.4,7.6l3.4,5.3l6.1,7.4l4.3,3.1l3.2,4.9l3,2.3l8.1,3.3l-2.8,2.4l4.5,2
	l0.6,3.7l-0.4,4.2l-6.2-1.6l-0.2,3.1l0.6,1.8l-2.8,1.5l-3.8-2l-9.9-11.1l0.1,1.5l0.8,1.7l5.8,7.2l5.2,4.3l4.4,1.9l3.4,3.6l1.2,2.2
	l0.8,3.3l-2.5,2.2l-2.8,1.3l-2.8-2.2l-2-2.4l-4.3-4l-1.3-4.5l-3.3,0.2l-13.8-5.7l-11.1-0.7l1.1,1.2l1.4,0.8l8.8,1.4l3.5,2.6l7.2,2.3
	l4.2,0.6l1.7,7.1l5.9,4.9l0.8,3.6l4,0.4l7-3.6l4.5,1.3l6.6,1l1.5,2.8l1.1,5.5l2.3,6.1l1.5,6h-1.4l-3.5,0l-11.3-0.1l-16.5-0.1
	l-16.5-0.1l-16.5-0.1l-16.5-0.1l-16.5-0.1l-16.5-0.1l-16.5-0.1l-16.5-0.1l-16.5-0.1l-16.5-0.1l-16.5-0.1l-16.5-0.1l-16.5-0.1
	l-16.5-0.1l-16.5-0.1l-0.8-0.9l-6.5-0.2l-4.7-0.2l-2.1,1.2l-9.5,0l-7.6,0l-12.8,0l-15.6-0.1l-22-0.1l-10.3,0l4.6-2.7l6.8-1.6
	l12.1-4.6l4.8-4.7l6.8-3.4l2.8-4.1l4.5-3.9l1.7-4.4l0.6-0.7l7.5-4l7.9-5l17.2-13.8l0.3,1.8l-0.6,2l1.4,2.3l1.2,3.6l1.7,2.2l2.1,1.8
	l3.5,1.6l4.1,2.8l3.3,0.8l1.1-0.1l3.6-2.7l3-1.4l3.1-2.9l5.6,4h2.2l5.5-1.7l5.2-0.5l1.3-0.5l1.9-1.6l0-3.3l0.4-0.9l0.9-0.4l1-0.1
	l2.3,1.2l2.3,0l9.6-3.9l0.7,0.3l1.2,1.8l4.2-2.3l2.5-2.1l1.1-3.2l2.1-3.1l-0.4-1.4l-1.4-1.8l1.8-4.2l2.6-4.2l9.8-12.7l3.1-7.7l4.1-5
	l1.4-4l3.1-3.9l2.1-8.1l1.3-1.6l1.9-0.3l1.9,1l1.4,1.5l0.9,2.4l5,2.1l4.1,0.2l2.9-1.5l1.7-2.8l2.3-5.4l2.2-3.2l1.4-4l1.4-2.8
	l2.2-1.7l5.6,0.1l2.9-2.5l2.2-2.8l1.4-0.9l1.6,0.1l5.1-4.5l6.7-9.4l1.4-5.9l1.7-4.3l0.7-4.4l1.3-2.4l5.9,4.8l3.4,2.8l7.7,6.3
	l5.1,4.1l2-4.8L2604.1,1120L2604.1,1120z M2716.4,1195.9l1.2-0.1l0,0l-4.9,8.7l-2.1,0.9L2716.4,1195.9z M2698,1200.7l1.8-2.6
	l6.9-0.9l4.2-0.6l-10,22.5l0.4,4.1l-2,1.4l-3,1.1l-3.1,2.5l-2,2.7l-1.9,7.3l-3.7,8.2l-2.3-3.4l-0.6-2.9l1-7.7l4-12.6l4.3-7.9
	l3.3-3.7L2698,1200.7L2698,1200.7z"/>
<path id="US-VT_00000085244067275977342190000016499559157259677573_" class="st0" d="M2842.9,917l-4.4-0.1l-4.5-0.2l-4.4-0.1
	l-4.5-0.2l-4.5-0.1l-4.4-0.2l-4.5-0.1l-4.4-0.2l-1.2-3.7l0.6-3.2l0.1-4.4l0.1-5.6l0.1-6.3l0.2-8.5l0.1-5.7l0.1-5.2l0.1-7l-2.7-4
	l-1.1-0.7l-0.9,0.4l-1.9,2.6l-0.6,0l-0.5-0.7l0.1-2.4l1.7-8.4l0-2.7l-0.3-4.5l-1.9-10.2l0-2.3l0.8-3.5l1.3-3.6l2.2-3.6l0.5-1.5
	l-0.1-6.3l0.7-5.8l-2.8-8.7l1.1-11.3l-0.8-5.4l0.9-5l-0.3-4.2l7.7,0h18.9l18.9,0l18.9,0h18.9l-0.7,1.3l1.1,5.1l-5,8.7l0.1,2.8
	l2.3,7.7l-0.1,1.8l-0.7,0.9l-1,3.3l-1.3,2l-2,2l-6.5,4.8l-1.9,1.2l-6.1,1.6l-1.4,1.8l-1.4,11.6l-2,6.5l-0.4,3l-2.7,5.1l-2.2,5.8
	l-3.4,4.8l-1.8,5.8l-1.2,2.2l-1,3.6l-1,12.3l-1.4,6.7l-1.6,11.5l-1.1,2.9l-1,1.5l-1.4,5l-0.1,1.8l0.6,1.6l2.5,4L2842.9,917z"/>
<path id="US-WA_00000045591265355404881710000009941283124986576012_" class="st0" d="M825.1,709.7h-11.2h-12.1h-12.1h-12.1h-12.1
	h-12.1h-12.1h-12.1h-0.8l-1.4,1.2l-5.8,2.4L710,714l-23,6.3l-10.1,4.9l-8.9,2.4l-16.5,2.3l-15,3.3l-6.3-0.3l-2.7-2.8l-7.2-1.6
	l-11.8-0.4l-10,1.9l-9.2,5.6l-2.9,0.6l0,0l-2.4,0.2l-16.3-2.2l-4.1-0.1l-3.5-3l-0.9-4.9l-4.4-14.9l-4.5-8.9l-4.5-2.9l-3.6-1.2
	l-4.5,1.6l-1.4-0.9l-2.2-0.2l-4.8-3.3l-2.8-3.3l-8.4,0.2l-1.7-2.1l-9.4,2.1l-2.9-2.2l-5.1,1.4l1.3-6.1l-0.2-7.7l0.2-7.5l1.3,5.5
	l3.2,5.8l1.5-6.6l1.1-8.3l-3.1-3.2L499,661l-1.8-7.8l12.3-6.7l-6.5-1.4l-2.6-3l-3.1-0.4l-0.2,2.3l-1,3l-1.1-4l-0.3-4.7l-1.3-8.1
	l-5-13.1l-3-17l-3.8-8.4l-7.3-8.1l-1.9-4.7l-1.7-12l1-9.1l-1.4-6.4l3.5,0.4l9.3,5.1l11.5,4l3.5,2.9l5.6,2.1l30.9,3.3l2-0.3l4-2.1
	l1.7,0.2l4.5,4.7l2.3,0.6l2.9-0.2l2.2-0.9l3.7-3.2l0.5,1.2l0,3l1.4,4.2l2.8,5.5l1,3.4l-5.5,9.6l-1.1,0.2l-0.1-3.2l-0.7-0.6
	l-10.4,16.2l-3.7,7.7l-0.4,3.5l0.1,2l1.4,0.5l3.3-0.8l4.9-3.2l0.2-0.7l-4.6,1.1l-2.2,0.1l0.3-3.6l0.5-1.7l3-5.4l3.1-3.2l4.5-3.4
	l2.6-2.8l1.8-4.1l5-5l0.9-1.4l-0.2-4.1l0.3-0.8l2.4,0.5l1,7l-0.6,3.1l-4.3,3.8l-0.5,1.4l0.8,5.2l-0.7,0.5l-1.6-0.6l-0.5,0.3l4.1,5.6
	l1.3,4.4l0.2,3.9l-1.1,7.5l-1.2,1.3l-2-0.4l-2.7-2.3l-0.6,0.8l-2.1,5.8l-0.7-0.5l-1.4-6.9l-0.7-0.5l-4.1,3.1l-1.6,3l-1.4,4.8
	l-1.8,2.2l5.2,0.5l4.6-1l3.7,2.3l1.3,0l3.4-2.2l1.1-1.5l2.8-7.2l1.4-1.3l2.1,0l2-1.1l3-4l0.1-1.6l-1.1-8.9l0.3-5.1l-0.6-1.6
	l-1.4-1.7l0.2-1.6l1.1-2.7l0.1-2.4l-0.9-2.2l0.4-2.5l2.8-5.3l0.5-2.3l3.5-5.3l-0.9-2.1l-2.6-2.6l-1.6-2.3l-1.6-3.6l-1.3-1.2
	l-0.4,0.5l1.7,5.8l-0.4,0.4l-4.5-3.1l-1.1-2l-0.5-2.7l0.4-2l2.4-2l2.9-0.7l-0.2-1.7l-3.6-5.5l-2.4-2.5l-1.9-1.2l-2.5-0.3l-1.1-0.9
	l-0.3-1.3l0.5-1.7l1.4-0.5l3.9,0.7l2.1-1.2l-0.2-2.2l-0.6-1.2l0.1-7.8l-1.5-6.4l-0.8-1.1l-0.8-0.1l-0.9,0.9l-2.4,0.2l-1.5-2.1
	l-1.6-4.1l-3-9.6h4.6h19.3h19.3h19.3h19.3h19.3h19.3h19.3h19.3h19.3h19.3h19.3h19.3h19.3h4.7l0.1,11l0,11l0,11l0,11l0,10.9l0,10.9
	l0,10.9l0,10.8l0,10.8l0,10.8l0,10.7l0,10.7l0,10.7l0,10.6l0,10.6l0,10.6l-0.3,0.6l-0.3,1.5l1.3,4.4l3,6.4l1,4.5l-1.2,2.6l0.8,4.4
	L825.1,709.7L825.1,709.7z M557.8,531.3l0.6,1.5l-1.8,1.4l-1.3,0.2l-2.1-2.3l-0.9-0.3l0.7,3.6l-0.2,1.2l-4.2-2.2l-0.8-1.7l1.2-1.8
	l2.7-1.9l0.9-0.2L557.8,531.3L557.8,531.3z M547.2,543l1.2,2.2l-4.9-1.4l-2.1-1.3l-0.6-1.3l-0.7-4.1l0.3-1.4l2.2-0.5l4.1,5.1
	L547.2,543L547.2,543z M556,547.8l-0.7,0.7l-2.4-0.9l-1.4-1.5l-0.5-1.9l0.9-3.6l1.2-0.9l0.8,0.2l0.3,3.2l2.2,3.4L556,547.8z
	 M567.3,566.5l2.2,8.9l1-3.7l6.2,6.4v3.1l-0.8,1.1l-1.3,0.4l-1.2-0.9l-1.1-2.2l-1.4-1.2l-2.9-0.8l-1.5-2.5l-0.5-1.7l-0.1-5l-0.7-1.5
	l-1.6-0.3l-1.5-1.2l-2.3-3.5l-0.3-0.9l1.1-2.8l2.5-4.8l1.8-2.3l1.2,0.2l1.4,1.4l1.7,2.6l-0.3,1.8l-6.8,3.6l-0.2,0.8l3.3,1l1.2,0.9
	L567.3,566.5L567.3,566.5z M570.7,604.4l-0.2,1.3l-2.5-1.5l-0.8-1.4l0.1-3.2l0.6-2.1l0.5-0.4l1.5,0.9l0.4,0.5L570.7,604.4
	L570.7,604.4z M575.4,617.8l-0.2,1.5l-1.7,1.2l-0.9-0.3l0-1.8l-0.5-0.3l-1.9,2.2l0.1-4.2l0.9-4.5l0.8-0.1l1.2,2.9L575.4,617.8
	L575.4,617.8z M554.5,630.5l-0.4,1.3l-0.6,0l-1.4-2.7l-0.2-1.9l1.2-1.4l1.6,3.9L554.5,630.5L554.5,630.5z"/>
<path id="US-WI_00000032646309415637999090000011382933413414733200_" class="st0" d="M2027.3,642.4l-1.5,1.1l-0.6-0.5l0.3-2
	l0.8-1.2l1.2-0.3l0.6,0.5v1.3L2027.3,642.4L2027.3,642.4z M2014.5,648.9l-0.7,0.5l-1.7-1.1l-0.2-0.9l0.5-0.9l0.8,0.2l1.2,1.4
	L2014.5,648.9L2014.5,648.9z M2028.1,671l-0.2,0.5l0.9,2.4l2.3-0.6l1,1.4l1.4,0.6l2.6,1.2l1.3,2.8l1.3,2.8l1.3,2.8l1.3,2.8l5.7,1.6
	l5.7,1.6l5.7,1.6l5.7,1.6l5.7,1.6l5.7,1.6l5.7,1.6l5.7,1.6l3.2,1.8l3.2,1.8l3.2,1.8l3.2,1.8l5,0.3l4.4,1.1l6.2,0l6.3,1.4l9.2,3
	l2.2,2.6l0.4,1.7l-0.9,4.1l8.8,3.6l3.8,2.7l1.4,2.1l-0.2,1.9l0.9,4l-0.9,2.1v3.7l-2,3.9l-0.7,2.1l0,1.8l0.4,1.2l1.1,0.4l3.3-0.2
	l3.3-1.2l1.4,0.7l0.3,0.6l-0.2,1.1l-2.7,6.6l0.1,2.7l1.1,2.6l1.8,2.5l2.2,0.9l-0.1,1.6l-0.9,3.2l-2.6,2.6l-6.7,3.2l-1.1,2.2
	l-0.1,1.8l-4.3,7.4l-2.1,4.5l-1.4,4.7l0.4,3l2.3,1.2l1.8-0.5l1.4-2.2l2.1-1.9l2.9-1.7l2.1-2.6l2.9-6.3l3.3-3.6l1.7-0.2l0.5,0.1
	l3.4-1.6l2.8,0.5l1.6,2.5l1.7,1.7l0.4,1.6l-0.9,3.5l-1.5,3.7l-2.3,3.9l-2.1,5.8l-1.8,7.8l-0.4,5.9l1.1,4l-1,3.5l-3.1,3.1l-2.5,4.1
	l-1.9,5.2l-1.1,4.3l-0.2,3.5l0.3,2.7l1.2,3.6l-0.1,1.8l-3.4,7.8l-1.2,3.8l-0.2,3l-0.8,2.9l-2.6,6l-0.8,3.3l-0.1,3l0.6,5l-0.3,1.7
	l0.1,1.3l0.6,0.9v1.5l-0.7,2.3l0.2,1.8l1.2,1.3l0.8,2.4l0.3,3.6l0.9,2.9l1.4,2.4l0.2,3.4l-0.9,4.5l-0.5,8.4v2.8l-5.8,0l-20.5-0.1
	l-20.5-0.1l-20.5-0.1l-20.5-0.1l-20.5-0.1l-20.9-0.1l-0.3-0.5l-1.4-5.5l-4.6-4.1l-7.8-2.7l-5-4.2l-2.2-5.7l-1.4-6.5l-0.6-7.2l0.6-6
	l1.8-4.9l-0.5-3.3l-2.8-1.7l-1.8-2.3l-0.9-2.8l-0.3-3.9l-1.5-18.4l-1.9-8.7l-2.8-3.4l-6-4l-9.2-4.5l-5.6-4.2l-3.2-6l-6.5-7l-4.2-2.9
	l-4.1-1.1l-3.3-2.3l-2.5-3.5l-3.4-2.2l-4.3-0.9l-4.8-2.8l-5.7-5.1l-0.1-0.4l-1.2-3.7l0.7-2.1l1-7.1l-0.1-2.3l-1.3-6.5l1.5-2.5
	l-0.3-8.1l0.5-2.7l3.1-6.6l0.1-3.4l-1.1-3.9l-2.3-3.2l-6.1-3.3l-0.2-4.1l1-3.1l4-5.8l2.2-5.2l2-2.2l12.3-7.7l2.6-0.5l1.9-2.2l1.5-1
	v-9.4v-9.5v-9.5v-9.5l3.1-0.7l1.4-2.4l3.1-3.7l0.8,0v0l1.5,1.7l3.9,2.5l3,0.3l3.9-0.5l15.3-4.2l6.5-2.9l6.3-5l0.6-0.1l2.7,0.9
	l0.8,0.4l8.3-5.7l2.7-0.7l2.1,0.1l2.7,2.2l0.6,1.4l-0.9,2.6l-2.4,3.9l-1.2,3.2l0,2.7l-1,2.8l-2.6,3.9l0.9,1.1l6.9-2.8l1-1.1l0.1-0.6
	l-0.4-0.8l0.8-0.3l5.5,3.8l3.7,2.1l3,1L2028.1,671L2028.1,671z M2021.8,649.5l-1.5,0.4l-3.3-0.6l0-1l3.4-1.4l1.5-0.4l0.3,0.6
	L2021.8,649.5L2021.8,649.5z M2014.3,658.4l-2.6,0.9l-1.1-0.2l0.4-1.3l1.4-1.5l6-3.7l1.1,0l0.3,0.9l-2.9,1.8l-1.1,1l-0.1,1
	L2014.3,658.4L2014.3,658.4z M2189.1,751.8l-1.4,0.6l-2.5-0.2l-0.9-1.4l1.3-3.7l0.5,0.7l2.2,0l0.8,0.4l0.2,0.9L2189.1,751.8
	L2189.1,751.8z M2183.3,759l-0.8,0.8l-1.4-0.5l-0.5,1.2l0.3,2.9l-0.5,1.4l-1.3-0.2l0,0.5l1.1,1.3l0.1,1.4l-0.9,1.5l-0.8,0.7
	l-0.8-0.1l-1.3,1.8l-1.7,3.7l-0.6,2.1l0.5,0.6l-0.4,1.2l-4.2,5.5l-1.6,0.5l-1.8-0.8l-1.3-1.6l-0.7-2.5l-0.2-1.9l0.3-1.4l3.7-4.9
	l1.6-3.2l0.9-3.6l1.7-2.3l2.5-1l2-2.3l1.5-3.5l1.8-1.5l2,0.4l0.9,1.4L2183.3,759L2183.3,759z"/>
<path id="US-WV_00000145023353370253888030000013890650948475362995_" class="st0" d="M2524.6,1097.9l-0.1,7.5l-0.1,7.5l-0.1,7.5
	l-0.1,7.5l5.8-4.3l3-1.5l9.9-9.6l1.3,0l3.4,1.4l7.1-6.9l0.9-2.5l0.8-0.8l0.9,0.1l0.5,0.6l-0.3,1.4l0.5,0.7l2.9,1.6l4.1,0.9l0.6,0.1
	l3.6,0l1.6-1.4l0.8-2.7l1.6-1.5l3.7-0.7l6.6-2.7l3.8,0.4l3.2,2.8l3.2,1.3l3.3-0.1l1.3,0.6l-0.8,1.4l0.9,1.6l2.5,1.8l0.9,1.7
	l-0.8,1.5l0.3,1.2l1.3,0.8l0.8,1.7l0.2,2.7l0.6,0.5l-2.9,7l-2,4.8l-5.1-4.1l-7.7-6.3l-3.4-2.8l-5.9-4.8l-1.3,2.4l-0.7,4.4l-1.7,4.3
	l-1.4,5.9l-6.7,9.4l-5.1,4.5l-1.5-0.1l-1.4,0.9l-2.2,2.8l-2.8,2.4l-5.6-0.1l-2.3,1.7l-1.4,2.8l-1.4,4l-2.2,3.1l-2.3,5.4l-1.7,2.8
	l-2.9,1.5l-4.2-0.2l-4.9-2.2l-0.9-2.4l-1.4-1.5l-1.9-1l-1.9,0.2l-1.3,1.6l-2.1,8.1l-3.1,3.9l-1.4,4l-4.1,5l-3.1,7.7l-9.8,12.7
	l-2.7,4.2l-1.8,4.2l1.4,1.8l0.4,1.4l-2.1,3.1l-1.1,3.2l-2.5,2.1l-4.2,2.3l-1.3-1.8l-0.7-0.3l-9.6,3.9l-2.3,0l-2.3-1.3l-1,0.1
	l-0.9,0.4l-0.4,0.8l0,3.4l-1.9,1.6l-1.3,0.5l-5.2,0.5l-5.5,1.7h-2.2l-5.6-4l-3.1,2.9l-3,1.4l-3.6,2.7l-1.1,0.1l-3.3-0.8l-4.1-2.8
	l-3.5-1.6l-2.1-1.7l-1.7-2.3l-1.2-3.6l-1.4-2.3l0.6-2l-0.3-1.8l-6.3-1.8l-8.1-6.7l-5.2-8.1l-1.6-3.8l-1.9-2.6l-0.5-2.6l-4.8-6.7
	l-1.3-2.9l-0.1-1.8l1.5-3.5l0.3-1.7l-0.5-8.6l-1.1-1.6l5.3,1.9l5-1.1l3.1-2.7l1.2-4.1l1.8-2.5l2.2-0.7l1.1-1.8l-0.4-4.5l-0.7-3.1
	l1.8-4.4l4.1-6.9l3.2-2.8l2.3,1.3l1.4,2.1l0.5,3l0.5,0.4l0.7,0l1.7-2.3l1.6-0.9l0.6,0.2l0.7,0l0.1-1.5l-1.2-4.1l0.1-2.5l1.4-0.7
	l1.5-2.8l1.6-4.8l2-2.5l2.3-0.1l2.5-2l2.7-3.9l2.4-1.1l2.1,1.6l2.7,0.1l3.2-1.4l5.6-4.1l8-6.8l4.1-5.5l0.1-4.2l3.1-10.2l6.2-16.3
	l3-10.6l-0.1-4.8l-0.9-4l-1.6-3l1-2.4l5.4-2.6l0,6.9v6.9v6.9v6.9v6.9l0,6.8v6.9v6.8h5.9h5.9h5.9h5.9h5.9h5.9h5.9L2524.6,1097.9z"/>
<path id="US-WY_00000137094537853281947630000010568329945295642763_" class="st0" d="M1409.5,900.3l0,15.4l0,15.3l0,15.3l0,15.2
	v15.2l0,15.1l0,15.1l0,15.1h-14.3h-14.2H1367h-14.3h-14.2h-14.3H1310h-14.3h-14.3h-14.2h-14.3h-14.3h-14.2h-14.3h-14.3h-14.2h-11.4
	h-11.4h-11.3h-11.4h-11.4h-11.4h-11.4h-11.3v-7.5v-7.5v-7.5V992v-7.6v-7.6v-7.6l0-7.6v-9.5v-9.6V933v-9.6v-9.6v-9.6v-9.6v-9.7v-9.7
	v-9.7v-9.7v-9.8V836v-9.8l0-9.8v-9.9l0-8v-8v-8v-8.1h9.9h10h9.9h9.9h10h9.9h9.9h10h9.9h9.9h9.9h10h9.9h9.9h10h9.9h9.9h10h9.9h9.9h10
	h9.9h9.9h10h9.9h9.9h10h9.9h9.9h10h9.9h9.9l0,16l0,15.9l0,15.8l0,15.7l0,15.7l0,15.6l0,15.5L1409.5,900.3z"/>
</svg>
